<svg height="512" viewBox="0 0 60 60" width="512" xmlns="http://www.w3.org/2000/svg"><g id="Page-1" fill="none" fill-rule="evenodd"><g id="009---Bear"><path id="Shape" d="m14.32 4.79c-1.1885503.89070617-2.2961798 1.88456104-3.31 2.97-.39-1.99-1.03-2.69-1.17-2.77-.19765238.0151537-.3925614.0554797-.58.12-2.55.86-4.18 2.92-4.19 3.56.09.13 1.01 1.02 3.75 1.71-.8247142 1.1212129-1.5666767 2.3010002-2.22 3.53-10.1-3.24-4.35-10.67 1.4-12.59 3.69-1.23 5.49 1.32 6.32 3.47z" fill="#6d4122" fill-rule="nonzero"/><path id="Shape" d="m11.01 7.76c-.7809414.82945898-1.51221445 1.70431537-2.19 2.62-2.74-.69-3.66-1.58-3.75-1.71.01-.64 1.64-2.7 4.19-3.56.1874386-.0645203.38234762-.1048463.58-.12.14.08.78.78 1.17 2.77z" fill="#dfc49c" fill-rule="nonzero"/><path id="Shape" d="m19.91 23.16c-.3186558 1.1676258-1.4279668 1.9392907-2.6335242 1.8319462-1.2055574-.1073444-2.1610776-1.0628646-2.268422-2.268422-.1073445-1.2055574.6643204-2.3148684 1.8319462-2.6335242 1.5388756.3289834 2.7410166 1.5311244 3.07 3.07z" stroke="#000" stroke-linecap="round" stroke-linejoin="round" stroke-width="2"/><g fill-rule="nonzero"><path id="Shape" d="m53.47 13.91c-1.186455-2.23917-2.6698594-4.30786311-4.41-6.15-1.0138202-1.08543896-2.1214497-2.07929383-3.31-2.97-.8615667-.65270449-1.7633483-1.25055225-2.7-1.79-3.8593223-2.26194758-8.6137847-2.36785446-12.57-.28-.3.16-.66.16-.96 0-3.9323834-2.08450484-8.6648999-1.97849647-12.5.28-.9366517.53944775-1.8384333 1.13729551-2.7 1.79-1.1885503.89070617-2.2961798 1.88456104-3.31 2.97-1.7401406 1.84213689-3.22354496 3.91083-4.41 6.15-3.45260876 6.3225491-4.45306966 13.6960527-2.81 20.71 1.62644073 5.9671346 4.93456924 11.3406739 9.53 15.48 4.14 3.87 10.75 8.9 16.68 8.9h.07c5.93 0 12.54-5.03 16.68-8.9 4.5954308-4.1393261 7.9035593-9.5128654 9.53-15.48 1.6430697-7.0139473.6426088-14.3874509-2.81-20.71z" fill="#91562d"/><path id="Shape" d="m53.47 13.91c-1.186455-2.23917-2.6698594-4.30786311-4.41-6.15-1.0138202-1.08543896-2.1214497-2.07929383-3.31-2.97-.8615667-.65270449-1.7633483-1.25055225-2.7-1.79-2.4118599-1.42588447-5.2259595-2.01836349-8.008-1.686 1.766484.21617986 3.4704403.78983608 5.008 1.686.9366517.53944775 1.8384333 1.13729551 2.7 1.79 1.1885503.89070617 2.2961798 1.88456104 3.31 2.97 1.7401406 1.84213689 3.223545 3.91083 4.41 6.15 3.4526088 6.3225491 4.4530697 13.6960527 2.81 20.71-1.6264407 5.9671346-4.9345692 11.3406739-9.53 15.48-3.8 3.554-9.686 8.075-15.215 8.792.4855481.0670383.9748702.1031112 1.465.108h.07c5.93 0 12.54-5.03 16.68-8.9 4.5954308-4.1393261 7.9035593-9.5128654 9.53-15.48 1.6430697-7.0139473.6426088-14.3874509-2.81-20.71z" fill="#6d4122"/><path id="Shape" d="m12 24c0-2.209139 1.790861-4 4-4 .2824491-.0008153.5641348.0293653.84.09 1.5388756.3289834 2.7410166 1.5311244 3.07 3.07.0606347.2758652.0908153.5575509.09.84 0 2.209139-1.790861 4-4 4s-4-1.790861-4-4z" fill="#37474f"/><path id="Shape" d="m20 24c0 2.209139-1.790861 4-4 4s-4-1.790861-4-4 1.790861-4 4-4c.2824491-.0008153.5641348.0293653.84.09-1.1676258.3186558-1.9392907 1.4279668-1.8319462 2.6335242.1073444 1.2055574 1.0628646 2.1610776 2.268422 2.268422 1.2055574.1073445 2.3148684-.6643204 2.6335242-1.8319462.0606347.2758652.0908153.5575509.09.84z" fill="#f5f5f5"/><path id="Shape" d="m39.11 47.33c-.4848056.3602636-1.0163397.6529437-1.58.87-2.35.89-4.96.3-7.46-.2 3 0 7-3 7-6s-7-3-7-3h-.07s-7 0-7 3 4 6 7 6c-2.5.5-5.11 1.09-7.46.2-.5636603-.2170563-1.0951944-.5097364-1.58-.87-2.61-1.95-3.36-5.41-3.03-8.5.37-3.49 2.33-5.86 4.08-8.75 1.58-2.61 1.44-5.81 3.04-8.37 1.0797298-1.6885356 2.9457623-2.7101413 4.95-2.71h.07c2.0042377-.0001413 3.8702702 1.0214644 4.95 2.71 1.6 2.56 1.46 5.76 3.04 8.37 1.76 2.89 3.71 5.26 4.08 8.75.33 3.09-.42 6.55-3.03 8.5z" fill="#a0522d"/><path id="Shape" d="m42.14 38.83c-.37-3.49-2.32-5.86-4.08-8.75-1.58-2.61-1.44-5.81-3.04-8.37-1.0797298-1.6885356-2.9457623-2.7101413-4.95-2.71h-.07c-.4942952.0114311-.9857285.0785209-1.465.2 1.4444936.3502828 2.6950254 1.2509527 3.485 2.51 1.6 2.56 1.46 5.76 3.04 8.37 1.76 2.89 3.71 5.26 4.08 8.75.33 3.09-.42 6.55-3.03 8.5-.4848056.3602636-1.0163397.6529437-1.58.87-.4444594.162318-.9046045.2779407-1.373.345 1.463931.2446968 2.9655507.1262292 4.373-.345.5636603-.2170563 1.0951944-.5097364 1.58-.87 2.61-1.95 3.36-5.41 3.03-8.5z" fill="#783e22"/><path id="Shape" d="m37.07 42c0 3-4 6-7 6h-.07c-3 0-7-3-7-6s7-3 7-3h.07s7 0 7 3z" fill="#607d8b"/><path id="Shape" d="m30.07 39h-.07s-.612 0-1.465.078c2.051.183 5.535.8 5.535 2.922 0 2.53-2.844 5.053-5.535 5.783.4766699.1364237.9692504.2093861 1.465.217h.07c3 0 7-3 7-6s-7-3-7-3z" fill="#37474f"/><path id="Shape" d="m37.53 48.2c-1.3784582 2.882358-4.2655462 4.7400018-7.46 4.8h-.07c-3.1944538-.0599982-6.0815418-1.917642-7.46-4.8 2.35.89 4.96.3 7.46-.2h.07c2.5.5 5.11 1.09 7.46.2z" fill="#a0522d"/><path id="Shape" d="m34.28 48.639c-1.2026589 2.1842696-3.3024863 3.7314532-5.745 4.233.4836644.0853213.9738677.1281514 1.465.128h.07c3.1944538-.0599982 6.0815418-1.917642 7.46-4.8-1.0417129.3678759-2.1480174.5173121-3.25.439z" fill="#783e22"/><path id="Shape" d="m48.07 24c0 2.209139-1.790861 4-4 4s-4-1.790861-4-4c-.0008153-.2824491.0293653-.5641348.09-.84.3186558 1.1676258 1.4279668 1.9392907 2.6335242 1.8319462 1.2055574-.1073444 2.1610776-1.0628646 2.268422-2.268422.1073445-1.2055574-.6643204-2.3148684-1.8319462-2.6335242.2758652-.0606347.5575509-.0908153.84-.09 2.209139 0 4 1.790861 4 4z" fill="#f5f5f5"/><path id="Shape" d="m45.07 22.5c-.00237 1.2501872-.9278964 2.3064245-2.1669421 2.4729765-1.2390456.1665519-2.4106379-.6077916-2.7430579-1.8129765.3289834-1.5388756 1.5311244-2.7410166 3.07-3.07 1.0860939.2972752 1.8394114 1.2839573 1.84 2.41z" fill="#37474f"/><path id="Shape" d="m55 8.67c-.09.13-1.01 1.02-3.75 1.71-.6777856-.91568463-1.4090586-1.79054102-2.19-2.62.39-1.99 1.03-2.69 1.17-2.77.1976524.0151537.3925614.0554797.58.12 2.55.86 4.18 2.92 4.19 3.56z" fill="#dfc49c"/><path id="Shape" d="m53.47 13.91c-.6533233-1.2289998-1.3952858-2.4087871-2.22-3.53 2.74-.69 3.66-1.58 3.75-1.71-.01-.64-1.64-2.7-4.19-3.56-.1874386-.0645203-.3823476-.1048463-.58-.12-.14.08-.78.78-1.17 2.77-1.0138202-1.08543896-2.1214497-2.07929383-3.31-2.97.83-2.15 2.63-4.7 6.32-3.47 5.75 1.92 11.5 9.35 1.4 12.59z" fill="#6d4122"/><path id="Shape" d="m21 24c-.0016588-.3264803-.0351506-.6520208-.1-.972-.5300355-2.6063746-3.0118755-4.3383915-5.6411043-3.9367921-2.6292289.4015995-4.4808546 2.7955282-4.2086572 5.4412861.2721973 2.6457579 2.5724556 4.612538 5.2283777 4.4703977 2.6559222-.1421404 4.7331252-2.3431946 4.7213838-5.0028917zm-2.151-.894c-.2654507.6111289-.9052353.9708618-1.5653196.8801353-.6600844-.0907265-1.1790892-.6097313-1.2698157-1.2698157-.0907265-.6600843.2690064-1.2998689.8801353-1.5653196.9316449.2935999 1.6614001 1.0233551 1.955 1.955zm-2.849 3.894c-1.2675443.0054489-2.4004952-.7897077-2.826279-1.9836116-.4257837-1.1939039-.0516666-2.5265285.933279-3.3243884-.0675419.264145-.1034604.5353795-.107.808 0 1.9329966 1.5670034 3.5 3.5 3.5.2726205-.0035396.543855-.0394581.808-.107-.5638694.6971096-1.4113958 1.1036139-2.308 1.107z" fill="#000"/><path id="Shape" d="m39.9 31.126c-.327-.51-.659-1.028-.985-1.564-.65661-1.2228929-1.1255232-2.537603-1.391-3.9-.3105144-1.5735715-.8691492-3.0877923-1.655-4.486-1.2547272-1.9740853-3.4299118-3.1715868-5.769-3.176h-.123c-2.3428571.0019879-4.5220939 1.2015678-5.777 3.18-.7862683 1.3980148-1.3449283 2.9123041-1.655 4.486-.2662748 1.3623191-.7355009 2.6769609-1.392 3.9-.326.536-.658 1.054-.985 1.564-1.5 2.331-2.908 4.532-3.233 7.6-.422 3.975.858 7.49 3.423 9.4.4566452.338817.9505162.6243362 1.472.851 1.5761468 3.0772941 4.7425475 5.0130751 8.2 5.0130751s6.6238532-1.935781 8.2-5.0130751c.5229177-.2269065 1.0178664-.5134735 1.475-.854 2.564-1.913 3.845-5.428 3.423-9.4-.319-3.069-1.728-5.27-3.228-7.601zm-9.9 20.874c-2.0014891.0108907-3.9088206-.8489779-5.226-2.356.167.008.335.014.5.014 1.5392677-.0514417 3.0696937-.2547615 4.569-.607l.19-.038.191.038c1.6591779.4015504 3.3609427.6003359 5.068.592-1.3394425 1.514946-3.2699089 2.374755-5.292 2.357zm0-5c-2.479 0-6-2.586-6-5 0-1.3 3.485-2 6-2h.071c2.092 0 6 .586 6 2 .001 2.414-3.52 5-6.071 5zm8.516-.472c-1.2291787.8698388-2.7320282 1.2645588-4.23 1.111 2.1-1.32 3.786-3.438 3.786-5.639 0-3.888-7.181-4-8-4h-.072c-.818 0-8 .112-8 4 0 2.2 1.682 4.319 3.8 5.638-1.5024757.157043-3.0108086-.237455-4.244-1.11-1.994-1.486-2.977-4.323-2.631-7.588.276-2.6 1.505-4.516 2.928-6.734.336-.524.677-1.056 1.011-1.607.7649713-1.3906313 1.3120048-2.8904205 1.622-4.447.2653856-1.3701336.7424296-2.6906076 1.414-3.914.8957387-1.3962104 2.4411606-2.2397846 4.1-2.238h.059c1.6628368-.0037935 3.2130657.83973 4.113 2.238.6717555 1.2231135 1.1481738 2.5437235 1.412 3.914.310612 1.5567236.8576093 3.0567505 1.622 4.448.334.55.675 1.082 1.012 1.606 1.423 2.218 2.651 4.134 2.928 6.734.345 3.265-.638 6.102-2.63 7.588z" fill="#000"/><path id="Shape" d="m44.072 19c-.3254881.0016565-.6500335.0351493-.969.1-1.9830195.3969368-3.5330632 1.9469805-3.93 3.93-.0653412.319904-.0988381.6454932-.1.972 0 2.7614237 2.2385763 5 5 5s5-2.2385763 5-5-2.2385763-5-5-5zm-.894 2.151c.6115871.264993.97191.9047965.8814627 1.5651595-.0904474.6603631-.6095357 1.179717-1.2698524 1.2705022-.6603167.0907853-1.3003044-.2692102-1.5656103-.8806617.2929518-.9316846 1.0224654-1.6615715 1.954-1.955zm.894 5.849c-.8963845-.0031152-1.7437151-.4097017-2.307-1.107.263806.0675378.534709.1034568.807.107 1.0742609.0130986 2.0935889-.4738505 2.7584466-1.3177535.6648577-.8439031.8997135-1.948888.6355534-2.9902465.985092.7979746 1.3591625 2.1308553.9331168 3.3248631-.4260458 1.1940078-1.5593885 1.9890134-2.8271168 1.9831369z" fill="#000"/><circle id="Oval" cx="28" cy="44" fill="#000" r="1"/><circle id="Oval" cx="32" cy="44" fill="#000" r="1"/><path id="Shape" d="m52.39.371c-3-1-5.512.059-7.038 2.905-.586-.4-1.184-.79-1.8-1.144-4.1644016-2.41964126-9.2801758-2.52880094-13.544-.289 0 0 0 0-.008 0-4.2387198-2.24374961-9.3367371-2.13403347-13.475.29-.618.354-1.215.741-1.8 1.143-1.525-2.845-4.039-3.904-7.041-2.905-3.758 1.255-7.632 4.712-7.611 8.329.011 1.763.95 4.133 5.141 5.779-3.15498801 6.3052831-4.00099783 13.5167119-2.391 20.381 1.66189106 6.1582362 5.0698916 11.7041814 9.813 15.969 3.669 3.425 10.803 9.171 17.436 9.171 6.559 0 13.7-5.746 17.365-9.171 4.7421526-4.265264 8.1493994-9.811113 9.811-15.969 1.6114809-6.8655227.7654302-14.0787158-2.391-20.385 4.193-1.646 5.132-4.015 5.143-5.775.021-3.617-3.853-7.074-7.61-8.329zm-50.317 8.314c-.015-2.585 3.216-5.406 6.243-6.416.816-.269 3.204-1.069 4.784 2.225-.547.441-1.073.905-1.585 1.387-.19846-.69720484-.6125848-1.31366622-1.183-1.761-.1913271-.10952985-.41384204-.15177952-.632-.12-.26001302.02251518-.51626996.0769236-.763.162-2.673.9-4.85 3.2-4.87 4.493-.00299458.20846225.05924007.41264786.178.584.82733052.8309523 1.86388555 1.4228252 3 1.713-.38.571-.742 1.152-1.084 1.748-2.001-.751-4.076-2.01-4.088-4.015zm6.4.557c-.75602488-.20399023-1.48538502-.49633845-2.173-.871.81467871-1.03137827 1.9006193-1.81536089 3.136-2.264.21819494.44561698.38268078.91557652.49 1.4-.50533333.55866667-.989 1.137-1.451 1.735zm46.834 25.134c-1.5683835 5.7832043-4.7759222 10.9893772-9.236 14.991-3.454 3.224-10.126 8.633-16.071 8.633-5.875 0-12.546-5.409-16-8.633-4.45988738-4.0016057-7.66710541-9.2078218-9.235-14.991-2.886-11.576 2.596-24.696 12.752-30.508 1.8118984-1.06458972 3.8735129-1.63011043 5.975-1.639 1.9356953.00296116 3.8420534.47328993 5.557 1.371.5929027.32003788 1.3070973.32003788 1.9 0 3.6564066-1.91647872 8.0414271-1.81788376 11.608.261 10.154 5.819 15.635 18.939 12.75 30.515zm-5.161-26.869c.1077571-.48456741.2729236-.95455335.492-1.4 1.2323186.44931231 2.3163028 1.23080538 3.132 2.258-.6862227.37933785-1.4158707.6741519-2.173.878-.4646667-.598-.9483333-1.17666667-1.451-1.736zm3.761 5.193c-.3406667-.596-.7016667-1.1783333-1.083-1.747 1.1352317-.2907085 2.1714072-.8813285 3-1.71.1192564-.17326266.180843-.37971787.176-.59-.022-1.3-2.2-3.59-4.882-4.494-.2416428-.0830535-.4924801-.13644458-.747-.159-.2186823-.03032347-.4412523.01257312-.633.122-.569633.44763727-.983597 1.06350925-1.183 1.76-.512-.482-1.038-.946-1.584-1.387 1.581-3.295 3.966-2.495 4.786-2.226 3.027 1.01 6.259 3.831 6.243 6.416-.012 2.005-2.087 3.265-4.093 4.015z" fill="#000"/></g></g></g></svg>