<svg id="Capa_1" enable-background="new 0 0 512 512" height="512" viewBox="0 0 512 512" width="512" xmlns="http://www.w3.org/2000/svg"><g><g><g fill="#ffbe73"><path d="m81.005 404.823c1.436 1.793-36.332-3.282-45.201-46.006.057.106-1.166-8.317-9.722-9.711-6.407-1.044-12.447 3.304-13.491 9.711-11.188 68.682 47.008 98.521 47.105 98.624z"/><path d="m53.302 475.703c.079 1.182.164 2.371.256 3.568 1.091 14.23 12.956 25.228 27.227 25.228h261.605c8.264 0 14.964-6.699 14.964-14.964 0-18.745-15.196-33.941-33.941-33.941-1.555 0-2.815-1.26-2.815-2.815v-149.764h-105.606c-93.684 0-167.92 79.211-161.69 172.688z"/><path d="m52.768 33.915c5.425-8.874 13.961-15.721 24.308-18.976 93.057-29.231 146.279 37.123 146.279 37.123l-60.336 82.935z"/></g><path d="m163.02 134.996-52.127 71.635c-63.427-40.725-67.521-113.752-64.358-153.505.542-6.96 2.743-13.5 6.233-19.211 56.774 2.518 102.985 45.669 110.252 101.081z" fill="#ffdde3"/><path d="m493.845 33.915c-5.425-8.874-13.961-15.721-24.308-18.976-93.057-29.231-146.279 37.123-146.279 37.123l60.336 82.935z" fill="#ffbe73"/><path d="m383.593 134.996 52.127 71.635c63.427-40.725 67.521-113.752 64.358-153.505-.542-6.96-2.743-13.5-6.233-19.211-56.773 2.518-102.985 45.669-110.252 101.081z" fill="#ffdde3"/><path d="m132.324 325.65c8.077 8.589 17.115 16.443 27.066 23.42 32.408 22.731 71.798 34.747 113.912 34.747 16.252 0 32.097-1.798 47.296-5.304v-75.498h-105.606c-30.276 0-58.514 8.282-82.668 22.635z" fill="#ffa83f"/><path d="m173.746 328.603c-38.248-26.816-62.853-69.793-62.853-121.971 0-89.69 72.72-162.41 162.41-162.41 89.7 0 162.42 72.72 162.42 162.41 0 52.189-24.615 95.155-62.864 121.971z" fill="#ffca8a"/><path d="m372.859 328.603c-27.502 19.283-62.045 30.214-99.556 30.214-37.522 0-72.065-10.931-99.556-30.214 6.561-21.637 19.979-40.295 37.726-53.437 7.185-5.312 12.978-12.323 16.612-20.48 7.983-17.891 25.229-30.275 45.218-30.275 19.999 0 37.245 12.384 45.229 30.275 3.644 8.178 9.467 15.189 16.652 20.521 17.727 13.131 31.124 31.769 37.675 53.396z" fill="#ffe9d2"/><path d="m82.044 399.283c0-10.129.723-20.088 2.089-29.841-21.642 29.555-33.473 66.624-30.831 106.26.079 1.182.164 2.372.256 3.568 1.091 14.23 12.956 25.229 27.227 25.229h28.997c-17.649-31.046-27.738-66.951-27.738-105.216z" fill="#ffa83f"/><path d="m139.006 233.062c0-81.025 45.343-151.453 112.034-187.314-79.157 10.855-140.148 78.748-140.148 160.884 0 42.706 16.489 79.241 43.444 105.803-9.88-24.526-15.33-51.311-15.33-79.373z" fill="#ffbe73"/></g><g><path d="m273.464 271.371c9.921 0 17.964-5.279 17.964-11.792 0-10.249-35.927-10.249-35.927 0-.001 6.512 8.042 11.792 17.963 11.792z"/><path d="m185.415 261.968c4.143 0 7.502-3.359 7.502-7.502v-16.874c0-4.143-3.359-7.502-7.502-7.502s-7.502 3.359-7.502 7.502v16.874c0 4.143 3.359 7.502 7.502 7.502z"/><path d="m361.035 261.968c4.143 0 7.502-3.359 7.502-7.502v-16.874c0-4.143-3.359-7.502-7.502-7.502s-7.502 3.359-7.502 7.502v16.874c0 4.143 3.359 7.502 7.502 7.502z"/><path d="m306.172 279.303c-4.143 0-7.502 3.358-7.502 7.502 0 4.876-3.967 8.844-8.844 8.844s-8.844-3.968-8.844-8.844c0-4.143-3.359-7.502-7.502-7.502s-7.502 3.358-7.502 7.502c0 4.876-3.967 8.844-8.844 8.844s-8.844-3.968-8.844-8.844c0-4.143-3.359-7.502-7.502-7.502s-7.502 3.358-7.502 7.502c0 20.785 25.016 31.655 40.193 17.34 4.272 4.03 10.024 6.507 16.346 6.507 23.431-.001 31.004-31.349 16.347-31.349z"/><path d="m45.584 457.185c-.38 8.552-.108 15.208.463 22.654 1.383 18.034 16.631 32.161 34.713 32.161h261.661c12.389 0 22.468-10.079 22.468-22.469 0-21.271-16.107-38.851-36.763-41.186v-89.949c67.195-20.203 113.37-76.837 115.09-147.768 27.586-18.784 46.722-45.348 56.898-79.026 9.032-29.89 9.067-59.55 7.507-79.156-1.595-20.464-15.553-38.407-35.779-44.769-57.354-18.017-112.906-3.61-150.984 35.72-15.093-4.404-31.044-6.776-47.54-6.776-16.499 0-32.452 2.373-47.548 6.779-34.112-36.034-90.048-54.859-150.971-35.721-20.211 6.357-28.368 22.117-28.463 22.223-4.166 6.816-6.695 14.612-7.312 22.532-1.56 19.618-1.525 49.278 7.507 79.169 10.177 33.679 29.313 60.243 56.9 79.027.929 38.302 14.981 73.519 39.64 100.803-13.139 6.158-25.441 13.987-36.681 23.368-3.18 2.655-3.607 7.385-.952 10.566s7.386 3.607 10.566.952c11.659-9.731 24.566-17.637 38.424-23.54 42.025 38.37 104.099 50.894 158.694 39.433v90.555c0 5.689 4.628 10.317 10.317 10.317 14.582 0 26.446 11.864 26.446 26.447 0 4.116-3.349 7.465-7.465 7.465h-35.937c-1.329-20.008-16.91-36.181-36.661-38.414v-61.302c0-4.143-3.359-7.502-7.502-7.502s-7.502 3.359-7.502 7.502v68.54c0 4.143 3.359 7.502 7.502 7.502h2.816c13.646 0 24.91 10.39 26.3 23.674h-79.917v-99.716c0-4.143-3.359-7.502-7.502-7.502s-7.502 3.359-7.502 7.502v99.716h-17.412c-1.316-19.813-16.607-35.866-36.085-38.345-.011-15.324-6.101-38.315-29.758-51.793-3.599-2.051-8.181-.796-10.232 2.804s-.795 8.18 2.804 10.232c26.431 15.059 21.924 43.43 21.725 44.597-.394 2.187.203 4.436 1.628 6.14 3.016 3.608 7.099 2.487 8.57 2.69 13.646 0 24.91 10.39 26.3 23.674h-83.295c-10.29 0-18.966-8.041-19.754-18.305-3.436-44.854 10.827-83.71 35.812-113.296 2.673-3.165 2.274-7.898-.891-10.571s-7.899-2.274-10.571.891c-8.934 10.579-16.447 22.056-22.461 34.186-7.961-5.843-16.171-15.707-19.701-32.265-.627-4.888-5.014-14.189-15.943-15.97-10.47-1.706-20.395 5.43-22.103 15.912-8.903 54.652 22.863 86.513 40.436 99.608zm137.1-131.642c15.709-42.676 39.729-39.728 52.257-67.854 7.003-15.695 22.068-25.837 38.378-25.837 9.318 0 18.83 3.346 26.689 10.089 13.668 11.728 10.095 20.952 26.06 35.402 6.682 6.048 26.813 18.171 37.888 48.202-52.103 33.733-127.297 35.054-181.272-.002zm284.659-303.553c4.132 1.3 7.961 3.308 11.332 5.903-15.413 2.569-30.585 8.202-43.951 16.346-3.538 2.155-4.659 6.771-2.503 10.309 2.166 3.555 6.788 4.649 10.309 2.503 14.135-8.604 30.264-13.94 47.041-15.423 1.714 3.785 2.77 7.862 3.092 11.995 2.842 35.727-.364 99.138-49.979 138.77-2.796-33.521-15.662-66.962-38.994-94.837 4.862-8.791 10.964-16.883 17.822-23.843 2.908-2.951 2.873-7.701-.078-10.609-2.952-2.908-7.701-2.873-10.609.078-6.526 6.623-12.716 14.466-17.772 22.794-16.147-16.029-35.325-28.663-56.34-37.121 32.589-30.06 78.908-43.112 130.63-26.865zm-388.045.001c51.314-16.119 97.629-3.516 130.612 26.872-21.007 8.457-40.174 21.086-56.316 37.111-18.752-30.989-50.33-52.209-85.619-58.086 3.37-2.592 7.196-4.598 11.323-5.897zm-25.316 31.622c.321-4.125 1.378-8.199 3.092-11.984 36.345 3.184 68.365 24.243 85.879 55.932-22.625 27.032-36.107 60.222-38.991 94.836-49.617-39.634-52.824-103.046-49.98-138.784zm219.336-1.988c143.122 0 208.394 180.073 103.212 264.827-7.698-18.67-20.671-35.335-36.847-47.319-11.254-8.353-13.535-16.783-16.865-22.677-10.301-18.232-29.202-29.608-49.5-29.608-14.6 0-28.431 5.884-38.872 15.904-15.095 14.486-11.403 24.478-27.488 36.376-16.72 12.392-29.39 29.249-36.838 47.299-14.564-11.783-26.502-25.833-35.531-42.863-50.949-96.085 21.043-221.939 138.729-221.939zm-253.363 308.366c.689-4.227 7.274-5.435 8.469.318 4.935 23.774 18.101 36.803 28.323 43.56-4.42 11.415-7.601 23.456-9.411 35.343-15.012-13.634-33.878-39.333-27.381-79.221z"/></g></g></svg>