<svg id="Layer_1" enable-background="new 0 0 512 512" height="512" viewBox="0 0 512 512" width="512" xmlns="http://www.w3.org/2000/svg"><g><g clip-rule="evenodd" fill-rule="evenodd"><path d="m66 200c0 4.22.153 8.404.423 12.556 8.751-9.951 21.576-16.23 35.869-16.23 18.994 0 35.397 11.091 43.088 27.149 33.255-9.309 70.831-14.559 110.619-14.559 39.789 0 77.364 5.25 110.62 14.559 7.692-16.058 24.094-27.149 43.088-27.149 14.292 0 27.118 6.279 35.869 16.23.272-4.151.424-8.336.424-12.556 0-23.204-4.166-45.434-11.782-65.988-4.03-10.876-4.948-25.52 14.235-30.66 19.66-5.268 33.546-24.176 33.546-45.602 0-26.372-21.378-47.75-47.75-47.75-17.902 0-33.321 9.956-41.678 24.43-7.973 13.81-18.642 15.574-33.314 6.056-29.727-19.285-65.183-30.486-103.257-30.486s-73.53 11.201-103.258 30.486c-14.672 9.518-25.341 7.754-33.314-6.056-8.356-14.474-23.775-24.43-41.677-24.43-26.372 0-47.75 21.378-47.75 47.75 0 21.425 13.885 40.334 33.546 45.602 19.183 5.14 18.265 19.784 14.235 30.66-7.616 20.554-11.782 42.784-11.782 65.988z" fill="#8690af"/><path d="m130.094 454.554c-24.703 2.207-53.674-4.905-76.972-21.766l5.378 49.212c1.195 10.935 9 20 20 20h34.5c11 0 19.068-9.04 20-20l1.887-22.186c-1.843-1.701-3.448-3.455-4.793-5.26z" fill="#fff"/><path d="m134.887 459.815c21.285 19.654 74.177 32.185 121.113 32.185s99.828-12.531 121.113-32.185l-.499-5.868c-39.835-5.603-60.731-31.949-120.614-31.949-59.882 0-80.779 26.346-120.614 31.949z" fill="#8690af"/><path d="m379 482c.932 10.96 9 20 20 20h34.5c11 0 18.805-9.065 20-20l5.378-49.212c-23.298 16.861-52.27 23.973-76.972 21.766-1.344 1.805-2.95 3.559-4.793 5.261z" fill="#fff"/><path d="m256 208.917c-39.788 0-77.364 5.25-110.619 14.559-7.692-16.058-24.094-27.149-43.088-27.149-26.371 0-47.75 21.378-47.75 47.75 0 7.04 1.524 13.724 4.26 19.74-30.655 22.769-48.803 51.03-48.803 81.641 0 78.541 69.133 113.649 120.094 109.096 43.389-3.877 63.427-32.557 125.906-32.557s82.517 28.68 125.906 32.557c50.961 4.553 120.094-30.555 120.094-109.096 0-30.612-18.148-58.872-48.802-81.642 2.736-6.016 4.26-12.7 4.26-19.74 0-26.372-21.378-47.75-47.75-47.75-18.994 0-35.397 11.091-43.088 27.149-33.256-9.308-70.831-14.558-110.62-14.558z" fill="#b6bccf"/></g><g><path d="m465.121 260.398c1.553-5.266 2.337-10.729 2.337-16.321 0-13.051-4.357-25.1-11.685-34.782.149-3.172.228-6.287.228-9.295 0-23.877-4.174-47.248-12.405-69.462-1.964-5.3-2.283-9.693-.9-12.369 1.164-2.25 3.972-3.986 8.347-5.158 24.114-6.461 40.957-29.185 40.957-55.261 0-31.843-25.906-57.75-57.75-57.75-20.569 0-39.857 11.277-50.338 29.43-1.591 2.755-4.083 6.183-6.921 6.865-2.741.662-7.104-.833-12.291-4.198-18.985-12.316-39.734-21.243-61.67-26.532-5.376-1.295-10.771 2.009-12.065 7.378s2.009 10.771 7.378 12.065c19.728 4.756 38.392 12.787 55.473 23.867 10.261 6.657 19.368 8.905 27.85 6.866 7.82-1.879 14.403-7.367 19.567-16.311 7.024-12.167 19.367-19.43 33.018-19.43 20.815 0 37.75 16.935 37.75 37.75 0 17.04-10.747 31.819-26.134 35.942-10.038 2.689-17.082 7.835-20.938 15.292-4.057 7.849-4.087 17.704-.087 28.501 6.553 17.686 10.242 36.195 11.005 55.12-7.855-4.005-16.733-6.28-26.138-6.28-19.261 0-37.27 9.786-47.902 25.5-33.251-8.569-68.804-12.91-105.805-12.91s-72.554 4.341-105.805 12.91c-10.633-15.714-28.642-25.5-47.903-25.5-9.405 0-18.283 2.274-26.137 6.279.763-18.925 4.451-37.433 11.004-55.12 4-10.797 3.971-20.652-.086-28.501-3.855-7.458-10.9-12.604-20.938-15.293-15.389-4.12-26.136-18.9-26.136-35.94 0-20.815 16.935-37.75 37.75-37.75 13.65 0 25.994 7.264 33.018 19.429 5.164 8.944 11.747 14.432 19.567 16.312 8.476 2.036 17.587-.208 27.85-6.866 17.078-11.079 35.74-19.108 55.467-23.865 5.369-1.295 8.672-6.697 7.377-12.066-1.294-5.369-6.698-8.671-12.065-7.377-21.934 5.29-42.68 14.215-61.663 26.53-5.188 3.365-9.549 4.855-12.291 4.198-2.837-.682-5.329-4.109-6.92-6.865-10.481-18.153-29.77-29.43-50.338-29.43-31.843 0-57.75 25.906-57.75 57.75 0 26.076 16.842 48.8 40.957 55.261 4.375 1.172 7.184 2.908 8.347 5.159 1.383 2.675 1.063 7.068-.9 12.368-8.234 22.215-12.407 45.585-12.407 69.462 0 3.01.078 6.125.228 9.295-7.328 9.682-11.685 21.731-11.685 34.782 0 5.593.784 11.055 2.336 16.321-30.703 24.741-46.879 54.027-46.879 85.061 0 34.843 12.722 64.896 36.79 86.909 2.201 2.013 4.493 3.94 6.859 5.786l4.911 44.933c1.83 16.754 14.422 28.913 29.94 28.913h34.5c15.669 0 28.551-12.533 29.964-29.152l.42-4.937c28.62 15.87 74.285 24.089 112.616 24.089 38.45 0 84.031-8.218 112.617-24.084l.42 4.932c1.412 16.62 14.294 29.152 29.963 29.152h34.5c15.519 0 28.111-12.16 29.94-28.913l4.911-44.929c2.367-1.847 4.659-3.776 6.861-5.79 24.067-22.013 36.788-52.066 36.788-86.909 0-31.034-16.176-60.32-46.879-85.061zm-352.121 231.602h-34.5c-6.079 0-9.475-5.747-10.059-11.086l-3.199-29.267c18.433 9.076 39.156 13.836 59.176 13.251l-1.382 16.255c-.458 5.391-4.053 10.847-10.036 10.847zm40.032-31.65c10.374-2.969 19.71-6.99 28.852-10.938 19.823-8.562 40.321-17.414 74.117-17.414s54.293 8.853 74.117 17.414c9.149 3.951 18.493 7.976 28.878 10.946-22.851 12.597-63.762 21.642-102.996 21.642-39.094 0-80.08-9.06-102.968-21.65zm290.527 20.565c-.584 5.339-3.98 11.085-10.06 11.085h-34.499c-5.982 0-9.577-5.457-10.035-10.847l-1.385-16.275c1.104.032 2.206.073 3.314.072 18.979-.001 38.446-4.723 55.864-13.298zm18.153-63.305c-20.911 19.125-51.155 29.462-78.917 26.984-16.883-1.508-29.797-7.085-44.749-13.543-20.679-8.931-44.117-19.053-82.046-19.053-37.93 0-61.368 10.122-82.046 19.053-14.953 6.458-27.866 12.035-44.749 13.543-27.767 2.485-58.006-7.858-78.917-26.984-19.814-18.123-30.288-43.073-30.288-72.151 0-28.728 18.052-51.312 36.107-66.72 1.631 2.172 3.412 4.236 5.35 6.173 1.953 1.953 4.512 2.929 7.071 2.929s5.119-.976 7.071-2.929c3.905-3.905 3.905-10.237 0-14.143-3.217-3.216-5.801-6.948-7.682-11.091-.02-.043-.044-.082-.064-.124-2.195-4.872-3.311-10.078-3.311-15.478 0-20.815 16.935-37.75 37.75-37.75 14.45 0 27.823 8.427 34.069 21.469.011.023.025.044.036.067.032.073.056.148.09.221 2.325 4.973 3.555 10.503 3.555 15.993 0 5.523 4.477 10 10 10s10-4.477 10-10c0-4.591-.581-9.195-1.672-13.673 30.708-7.617 63.491-11.487 97.63-11.487 34.138 0 66.92 3.87 97.629 11.487-1.091 4.478-1.672 9.082-1.672 13.673 0 5.523 4.478 10 10 10s10-4.477 10-10c0-5.49 1.229-11.02 3.556-15.993.035-.075.06-.153.093-.229.01-.02.022-.039.032-.059 6.247-13.042 19.62-21.469 34.069-21.469 20.815 0 37.75 16.935 37.75 37.75 0 5.405-1.118 10.616-3.318 15.493-.018.037-.039.071-.056.109-1.881 4.142-4.465 7.874-7.683 11.091-3.905 3.905-3.905 10.237 0 14.143 1.953 1.953 4.512 2.929 7.071 2.929s5.118-.976 7.071-2.929c1.937-1.938 3.719-4.001 5.349-6.173 18.057 15.407 36.109 37.992 36.109 66.72 0 29.078-10.473 54.028-30.288 72.151z"/><path d="m131.297 248.439c-7.21-8.291-18.219-11.101-28.732-7.336-10.525 3.77-17.516 13.042-17.81 23.62-.154 5.521 4.197 10.121 9.718 10.274.095.003.188.004.283.004 5.394 0 9.84-4.296 9.991-9.722.072-2.591 2.344-4.552 4.563-5.347 1.56-.56 4.53-1.089 6.896 1.631 3.624 4.167 9.941 4.608 14.108.984 4.166-3.624 4.607-9.94.983-14.108z"/><path d="m138.39 294.126h-.007c-5.523 0-9.997 4.477-9.997 10s4.481 10 10.004 10 10-4.477 10-10-4.477-10-10-10z"/><path d="m85.39 337.626h-.007c-5.523 0-9.997 4.477-9.997 10s4.481 10 10.004 10 10-4.477 10-10-4.477-10-10-10z"/><path d="m167.883 355.626h-.008c-5.523 0-9.996 4.477-9.996 10s4.481 10 10.004 10 10-4.477 10-10-4.477-10-10-10z"/><path d="m109.383 393.126h-.008c-5.523 0-9.996 4.477-9.996 10s4.481 10 10.004 10 10-4.477 10-10-4.477-10-10-10z"/><path d="m201.375 302.126h-.007c-5.523 0-9.997 4.477-9.997 10s4.481 10 10.004 10 10-4.477 10-10-4.477-10-10-10z"/><path d="m91.148 86.817c1.078.371 2.175.547 3.255.547 4.15 0 8.029-2.604 9.455-6.749 3.576-10.389.505-21.329-8.012-28.551-8.528-7.23-20.054-8.648-29.361-3.614-4.858 2.627-6.666 8.695-4.039 13.553 2.628 4.858 8.696 6.667 13.553 4.039 2.279-1.234 5.114-.247 6.913 1.278 1.263 1.071 3.208 3.377 2.035 6.787-1.797 5.222.979 10.912 6.201 12.71z"/><path d="m395.795 261.563c2.365-2.721 5.337-2.191 6.896-1.631 2.219.795 4.49 2.756 4.563 5.347.15 5.426 4.597 9.722 9.991 9.722.094 0 .188-.001.282-.004 5.521-.153 9.872-4.753 9.719-10.274-.294-10.578-7.284-19.85-17.81-23.62-10.514-3.766-21.522-.955-28.732 7.336-3.624 4.168-3.184 10.484.984 14.108 4.167 3.624 10.484 3.183 14.107-.984z"/><path d="m373.61 294.126c-5.522 0-10 4.477-10 10s4.478 10 10 10h.008c5.522 0 9.996-4.477 9.996-10s-4.482-10-10.004-10z"/><path d="m426.61 337.626c-5.522 0-10 4.477-10 10s4.478 10 10 10h.007c5.522 0 9.997-4.477 9.997-10s-4.482-10-10.004-10z"/><path d="m344.117 355.626c-5.522 0-10 4.477-10 10s4.478 10 10 10h.008c5.522 0 9.996-4.477 9.996-10s-4.482-10-10.004-10z"/><path d="m402.617 393.126c-5.522 0-10 4.477-10 10s4.478 10 10 10h.008c5.522 0 9.996-4.477 9.996-10s-4.482-10-10.004-10z"/><path d="m310.625 302.126c-5.522 0-10 4.477-10 10s4.478 10 10 10h.008c5.522 0 9.996-4.477 9.996-10s-4.482-10-10.004-10z"/><path d="m429.087 67.32c1.798-1.525 4.635-2.509 6.912-1.278 4.86 2.627 10.927.819 13.554-4.039 2.628-4.858.819-10.926-4.038-13.553-9.31-5.034-20.833-3.616-29.362 3.615-8.518 7.222-11.587 18.162-8.012 28.55 1.427 4.145 5.305 6.749 9.455 6.749 1.079 0 2.178-.176 3.256-.547 5.222-1.797 7.998-7.488 6.201-12.71-1.174-3.409.771-5.716 2.034-6.787z"/><path d="m204.007 151.252h-.007c-5.523 0-9.997 4.477-9.997 10s4.481 10 10.004 10 10-4.477 10-10-4.477-10-10-10z"/><path d="m308 151.252h-.007c-5.522 0-9.997 4.477-9.997 10s4.481 10 10.004 10 10-4.477 10-10-4.478-10-10-10z"/><path d="m184.522 97.607c-5.358 2.95-9.23 5.082-17.395 5.082-5.523 0-10 4.477-10 10s4.477 10 10 10c13.307 0 20.922-4.193 27.041-7.562 5.359-2.95 9.23-5.082 17.396-5.082s12.037 2.131 17.395 5.082c6.119 3.369 13.734 7.562 27.041 7.562s20.922-4.193 27.042-7.562c5.358-2.95 9.229-5.082 17.395-5.082s12.036 2.131 17.395 5.082c6.119 3.369 13.734 7.562 27.042 7.562 5.522 0 10-4.477 10-10s-4.478-10-10-10c-8.166 0-12.037-2.131-17.396-5.082-6.119-3.369-13.734-7.562-27.041-7.562s-20.922 4.193-27.041 7.562c-5.358 2.95-9.229 5.082-17.395 5.082-8.165 0-12.037-2.131-17.395-5.082-6.119-3.369-13.734-7.562-27.041-7.562s-20.923 4.193-27.043 7.562z"/><path d="m256 20c5.523 0 10-4.477 10-10s-4.477-10-10-10h-.007c-5.523 0-9.996 4.477-9.996 10s4.48 10 10.003 10z"/></g></g></svg>