<svg id="Capa_1" enable-background="new 0 0 512 512" height="512" viewBox="0 0 512 512" width="512" xmlns="http://www.w3.org/2000/svg"><g><g><g><path d="m408.95 120.049.155 2.231c.062.898.113 1.795.152 2.69 2.358 54.156-41.808 99.008-96.016 99.008h-267.009c-21.391 0-38.732 17.341-38.732 38.732 0 5.642 1.232 11.215 3.611 16.331 34.393 73.967 108.561 121.275 190.133 121.275h59.533c50.034 0 95.202-20.838 127.296-54.31 30.376-31.679 49.042-74.674 49.042-122.028v-103.929z" fill="#5a5a5a"/><g fill="#444"><path d="m421.139 146.435h-40.923c-23.438 0-42.438-19-42.438-42.438v-27.202h40.923c23.438 0 42.438 19 42.438 42.438z"/><path d="m421.139 146.435h40.923c23.438 0 42.438-19 42.438-42.438v-27.202h-40.923c-23.438 0-42.438 19-42.438 42.438z"/></g><path d="m408.95 120.05c-3.862 44.595 4.149 104.038-12.081 148.313-3.148 8.587-37.316 88.914-74.925 86.484-14.823-.958-28.779-14.698-54.434-10.434-6.956 1.156-12.25 3.058-16.668 4.961-14.728 6.344-23.26 13.431-44.098 27.031-5.451 3.558-12.248 7.89-14.448 9.188-14.045 8.291-41.247 11.317-99.498-15.507 10.311 6.275 25.137 14.074 44.047 20.172 3.418 1.102 13.673 4.31 27.939 6.904 12.395 2.253 24.095 3.366 67.07 3.155 46.685-.23 55.447-1.745 62.054-2.996 11.577-2.191 23.652-5.949 38.942-12.371 124.667-64.972 102.196-156.277 104.266-264.899h-28.166z" fill="#444"/><path d="m244.001 346.623c29.985-10.111 62.959 5.618 73.01 35.624.223.667.439 1.342.646 2.027 7.365 24.322-.247 44.837-2.806 50.999-40.535-22.072-81.07-44.144-121.605-66.217-2.299-1.252-2.004-4.641.476-5.477z" fill="#5a5a5a"/><path d="m94.827 283.824c-29.949-22.966-61.369-31.949-84.595-35.4-1.757 4.422-2.732 9.239-2.732 14.287 0 5.642 1.232 11.215 3.611 16.331 28.942 62.245 86.053 105.607 152.039 117.789-5.911-29.473-22.307-77.721-68.323-113.007z" fill="#cecece"/><path d="m161.55 389.565c-1.327-5.572-3.005-11.621-5.147-18.004-30.184-11.967-58.827-27.427-85.305-46.062-22.598-15.907-43.66-34.181-62.666-54.353.605 2.712 1.5 5.36 2.679 7.896 5.756 12.379 12.642 23.997 20.475 34.785 9.932 8.454 20.241 16.45 30.88 23.938 30.546 21.5 63.875 38.912 99.084 51.8z" fill="#ebebeb"/></g><path d="m7.851 257.555c15.899 16.061 33.446 30.401 52.372 42.757 25.27 16.497 52.68 29.282 81.575 38.083-3.765-6.754-8.118-13.555-13.125-20.263-21.14-7.863-41.327-18.027-60.251-30.381-16.623-10.852-32.129-23.312-46.32-37.18-4.143-.883-8.115-1.588-11.87-2.146-1.148 2.889-1.954 5.949-2.381 9.13z" fill="#ebebeb"/></g><path d="m7.5 143.532c4.143 0 7.5-3.357 7.5-7.5v-1.394c0-9.935 8.083-18.018 18.019-18.018 9.935 0 18.018 8.083 18.018 18.018v55.345c0 4.143 3.357 7.5 7.5 7.5s7.5-3.357 7.5-7.5v-55.345c0-9.935 8.083-18.018 18.019-18.018 9.935 0 18.018 8.083 18.018 18.018v1.394c0 4.143 3.357 7.5 7.5 7.5s7.5-3.357 7.5-7.5v-1.394c0-18.206-14.812-33.018-33.018-33.018-10.27 0-19.458 4.714-25.518 12.09-6.06-7.376-15.248-12.09-25.518-12.09-18.207.001-33.02 14.813-33.02 33.019v1.394c0 4.142 3.357 7.499 7.5 7.499zm129.073 118.941c0-4.142-3.358-7.5-7.5-7.5s-7.5 3.358-7.5 7.5 3.358 7.5 7.5 7.5 7.5-3.358 7.5-7.5zm367.927-193.178h-40.923c-17.898 0-33.62 9.47-42.438 23.658-8.818-14.188-24.54-23.658-42.438-23.658h-40.922c-4.143 0-7.5 3.357-7.5 7.5v27.202c0 27.535 22.402 49.938 49.938 49.938h17.961c-11.03 36.729-45.381 62.544-84.938 62.544h-222.945c-4.143 0-7.5 3.357-7.5 7.5s3.357 7.5 7.5 7.5h222.945c47.762 0 89.043-32.258 100.493-77.544h15.882v70.044c0 43.766-16.676 85.259-46.955 116.838-12.604 13.145-27.135 24.106-43.188 32.579-3.663 1.934-5.065 6.471-3.132 10.134 1.344 2.547 3.946 4.001 6.64 4.001 1.18 0 2.378-.28 3.494-.869 17.478-9.225 33.295-21.156 47.013-35.464 32.971-34.385 51.129-79.565 51.129-127.219v-70.044h17.447c27.535 0 49.938-22.402 49.938-49.938v-27.202c-.001-4.142-3.358-7.5-7.501-7.5zm-90.86 69.64h-33.423c-19.265 0-34.938-15.673-34.938-34.938v-19.702h33.422c19.265 0 34.938 15.673 34.938 34.938v19.702zm83.36-34.938c0 19.265-15.673 34.938-34.938 34.938h-33.422v-19.702c0-19.265 15.673-34.938 34.938-34.938h33.422zm-219.835 225.552c-3.804-1.639-8.217.12-9.854 3.926-1.637 3.805.121 8.217 3.926 9.854 5.027 2.163 30.548 14.406 39.241 43.118 4.554 15.039 2.834 28.573.188 38.008l-56.394-30.708c-.027-.015-.055-.03-.082-.045l-63.39-34.517c-3.64-1.981-8.194-.638-10.174 3-1.98 3.639-.638 8.193 3 10.174l37.571 20.458h-19.955c-10.713 0-21.349-.849-31.822-2.514-7.539-33.525-25.847-78.549-70.032-112.429-22.363-17.15-48.904-29.111-77.303-34.949 5.732-6.982 14.427-11.445 24.145-11.445h14.063c4.143 0 7.5-3.357 7.5-7.5s-3.357-7.5-7.5-7.5h-14.061c-33.136-.384-56.159 35.513-41.922 65.725 17.479 37.591 45.191 69.243 80.142 91.537 34.95 22.293 75.337 34.076 116.792 34.076h47.502l62.518 34.042c2.099 1.491 8.012 1.439 10.513-3.71 4.327-10.416 10.478-31.549 3.058-56.05-10.351-34.185-39.104-48.865-47.67-52.551zm-184.646 31.545c-32.537-20.754-58.335-50.221-74.606-85.216-1.906-4.096-2.913-8.649-2.913-13.167 0-1.98.193-3.915.547-5.793 27.792 5.1 52.904 16.13 74.716 32.857 37.849 29.024 55.102 67.1 62.935 97.255-21.392-5.229-41.881-13.946-60.679-25.936z"/></g></svg>