<svg width="55" height="55" viewBox="0 0 55 55" fill="none" xmlns="http://www.w3.org/2000/svg">
<path d="M23.9531 25.6738H21.8713V17.7246C21.8712 17.5252 21.7919 17.334 21.6509 17.193C21.5099 17.052 21.3187 16.9728 21.1193 16.9727H19.6584V2.26016C19.6585 2.2092 19.6533 2.15836 19.6429 2.10848C19.6057 1.53798 19.3532 1.00292 18.9365 0.611494C18.5198 0.220074 17.97 0.00150828 17.3982 0C15.1483 0.00250209 12.9912 0.897398 11.4003 2.48835C9.80931 4.0793 8.91442 6.23638 8.91191 8.48633V16.9727H7.45098C7.25158 16.9728 7.06038 17.052 6.91939 17.193C6.7784 17.334 6.69914 17.5252 6.69902 17.7246V25.6738H4.61719C4.41779 25.6739 4.2266 25.7532 4.0856 25.8942C3.94461 26.0352 3.86535 26.2264 3.86523 26.4258V50.8093C3.86649 51.92 4.30827 52.9849 5.09368 53.7703C5.87908 54.5557 6.94396 54.9975 8.05469 54.9987H20.5156C21.6264 54.9975 22.6912 54.5557 23.4766 53.7703C24.262 52.9849 24.7038 51.92 24.7051 50.8093V26.4258C24.705 26.2264 24.6257 26.0352 24.4847 25.8942C24.3437 25.7532 24.1525 25.6739 23.9531 25.6738ZM17.3982 1.50391C17.5987 1.50413 17.791 1.58388 17.9327 1.72566C18.0745 1.86743 18.1543 2.05966 18.1545 2.26016C18.1524 4.11138 17.4161 5.8862 16.1071 7.19521C14.7981 8.50423 13.0233 9.24053 11.1721 9.24258H10.4158V8.48676C10.4178 6.63546 11.154 4.86053 12.463 3.55142C13.7721 2.24232 15.5469 1.50595 17.3982 1.50391ZM10.4158 10.7465H11.1721C12.5459 10.7461 13.8991 10.4121 15.1154 9.77323C16.3316 9.13434 17.3745 8.20966 18.1545 7.07867V16.9727H10.4158V10.7465ZM8.20164 18.4766H20.3674V25.6738H8.20164V18.4766ZM23.2033 50.8093C23.2025 51.5213 22.9193 52.2039 22.4159 52.7073C21.9124 53.2108 21.2298 53.494 20.5178 53.4948H8.05684C7.34483 53.494 6.66221 53.2108 6.15875 52.7073C5.65528 52.2039 5.37209 51.5213 5.37129 50.8093V27.1764H23.2033V50.8093Z" fill="black"/>
<path d="M50.3828 25.6738H31.0469C30.8475 25.6739 30.6563 25.7532 30.5153 25.8942C30.3743 26.0352 30.295 26.2264 30.2949 26.4258V50.8093C30.2962 51.92 30.738 52.9849 31.5234 53.7703C32.3088 54.5557 33.3736 54.9975 34.4844 54.9987H46.9453C48.056 54.9975 49.1209 54.5557 49.9063 53.7703C50.6917 52.9849 51.1335 51.92 51.1348 50.8093V26.4258C51.1347 26.2264 51.0554 26.0352 50.9144 25.8942C50.7734 25.7532 50.5822 25.6739 50.3828 25.6738ZM49.6309 27.1777V30.4004H31.7988V27.1777H49.6309ZM49.6309 35.3418H31.7988V31.9043H49.6309V35.3418ZM46.9453 53.4948H34.4844C33.7724 53.494 33.0898 53.2108 32.5863 52.7073C32.0828 52.2039 31.7996 51.5213 31.7988 50.8093V36.8457H49.6309V50.8105C49.6301 51.5226 49.3469 52.2052 48.8434 52.7086C48.3399 53.2121 47.6573 53.4953 46.9453 53.4961V53.4948Z" fill="black"/>
</svg>
