<svg width="55" height="49" viewBox="0 0 55 49" fill="none" xmlns="http://www.w3.org/2000/svg">
<path d="M50.0532 19.5575H42.5538C41.8085 19.5575 41.153 19.0812 40.9226 18.3723L38.6383 11.3422C37.2614 7.10462 31.7256 6.69802 29.6635 10.3852H24.5994C24.0988 10.3852 23.6581 10.0647 23.5031 9.5885L21.605 3.74716C20.2751 -0.349051 14.6146 -0.353992 13.2816 3.74673L11.3831 9.58925C11.2286 10.0654 10.7882 10.3852 10.2956 10.3852L4.38416 10.354C0.157206 10.354 -1.61273 15.7536 1.79264 18.2549C7.03454 22.2917 6.50408 21.8842 6.54103 21.9109C6.94688 22.2061 7.11575 22.724 6.96063 23.2004L5.06233 29.0436C3.75089 33.0821 8.37252 36.4793 11.7959 33.9925C12.0082 33.84 10.6245 34.8572 16.7691 30.3223C16.9213 30.213 17.0947 30.1439 17.2758 30.1176L21.0163 32.8353C21.6193 33.2734 21.8697 34.044 21.6394 34.753L19.3552 41.783C17.875 46.338 23.0884 50.1805 26.9537 47.3723C27.1801 47.2043 25.6081 48.3654 32.9379 42.9559C33.539 42.5218 34.3451 42.5218 34.9462 42.9559L40.9206 47.3652C44.9137 50.1989 49.9852 46.2644 48.5289 41.7831L46.2447 34.7529C46.0149 34.0459 46.2634 33.2776 46.8628 32.839C53.9884 27.7531 52.7906 28.6081 52.9553 28.4905C56.8224 25.6808 54.8405 19.5575 50.0532 19.5575ZM9.89784 31.388C9.30529 31.8149 8.77278 31.5211 8.57082 31.3744C8.40431 31.2535 7.88051 30.7997 8.12748 30.039L10.0255 24.1969C10.6111 22.3974 9.98077 20.4404 8.45663 19.319C3.22494 15.2901 3.7439 15.6889 3.70695 15.6621C3.07809 15.2052 3.22719 14.5599 3.28789 14.3731C3.34858 14.1863 3.60705 13.5766 4.37578 13.5766L10.2873 13.6078C12.1894 13.6078 13.8617 12.3925 14.4484 10.5843L16.3467 4.74278C16.595 3.97834 17.1965 3.89563 17.4438 3.89563C17.9384 3.89563 18.3566 4.1774 18.5401 4.74256L20.4385 10.5851C21.0269 12.393 22.6991 13.6078 24.5995 13.6078H28.5098L26.9617 18.3724C26.7313 19.0813 26.0759 19.5575 25.3305 19.5575H17.9385C13.4561 19.5575 11.3605 24.9919 14.4702 28.0134L9.89784 31.388ZM51.0662 25.8794C43.9407 30.9652 45.1385 30.1102 44.9739 30.2278C43.2377 31.4891 42.5168 33.7078 43.1801 35.7486L45.4643 42.7788C45.7548 43.6731 45.3178 44.3845 44.812 44.7521C44.5771 44.9227 43.7413 45.4275 42.829 44.7678C35.5015 39.36 37.0704 40.5188 36.8447 40.3514C35.1971 39.1545 32.9093 39.025 31.0302 40.3585L25.0557 44.7678C24.1438 45.4273 23.3077 44.9228 23.0727 44.7521C22.5669 44.3845 22.1299 43.6731 22.4205 42.7787L24.7046 35.7487C25.3679 33.7078 24.6471 31.4892 22.911 30.2279C16.2347 25.3771 29.8739 35.287 16.9307 25.8829C15.9954 25.2033 16.2173 24.2434 16.3077 23.9654C16.398 23.6874 16.7826 22.7803 17.9389 22.7803H25.3309C27.4768 22.7803 29.364 21.409 30.0271 19.3682C32.3638 12.1766 27.3635 27.5661 32.3114 12.3381C32.6868 11.1828 33.6548 11.093 33.9426 11.093C34.2304 11.093 35.1983 11.1828 35.5739 12.3381L37.8582 19.3681C38.5213 21.409 40.4084 22.7803 42.5543 22.7803H50.0538C51.2101 22.7803 51.5947 23.6874 51.685 23.9654C51.7746 24.243 51.9961 25.2 51.0662 25.8794Z" fill="black"/>
<path d="M33.9425 24.5212C31.1585 24.5212 28.8936 26.7862 28.8936 29.5702C28.8936 32.3542 31.1585 34.6192 33.9425 34.6192C36.7265 34.6192 38.9915 32.3542 38.9915 29.5702C38.9915 26.7862 36.7265 24.5212 33.9425 24.5212ZM33.9425 31.3964C32.9355 31.3964 32.1163 30.5772 32.1163 29.5702C32.1163 28.5632 32.9355 27.744 33.9425 27.744C34.9495 27.744 35.7687 28.5632 35.7687 29.5702C35.7687 30.5772 34.9495 31.3964 33.9425 31.3964Z" fill="black"/>
</svg>
