<svg width="55" height="55" viewBox="0 0 55 55" fill="none" xmlns="http://www.w3.org/2000/svg">
<g clip-path="url(#clip0)">
<path d="M51.7165 25.7527H55V22.5174H51.7131C51.4583 20.2938 50.5329 17.9872 47.5321 16.7198L47.4411 16.6846C44.7092 15.7202 38.8235 15.5076 38.8235 15.5076H14.0196V15.513C11.8003 15.5647 9.62511 15.9553 7.55894 16.6846L7.46792 16.7198C4.46708 17.9873 3.54168 20.2938 3.28695 22.5174H0V25.7527H3.2835C3.47449 27.5886 4.00767 29.8467 5.06259 31.8497C5.24743 32.2006 5.44371 32.5339 5.6499 32.8512L0.593245 36.9884L2.64194 39.4924L7.80784 35.2657C9.37782 36.516 11.2783 37.1619 13.444 37.1619C16.2205 37.1619 19.1992 35.7295 21.6163 33.2317C23.663 31.1168 25.0837 28.4518 25.634 25.7526H29.3661C29.9163 28.4517 31.337 31.1167 33.3838 33.2317C35.8009 35.7295 38.7796 37.1619 41.5561 37.1619C43.8465 37.1619 45.8401 36.4393 47.46 35.0437L52.8974 39.4923L54.9461 36.9883L49.5334 32.56C49.6732 32.3311 49.8082 32.0949 49.9374 31.8496C50.9923 29.8466 51.5255 27.5886 51.7165 25.7527ZM29.1644 22.5174H25.8354C25.7316 21.4831 25.4523 20.5282 25.0039 19.6982C24.8204 19.3588 24.6074 19.0406 24.369 18.7429H30.6308C30.3924 19.0407 30.1794 19.3588 29.9959 19.6982C29.5477 20.5281 29.2683 21.4829 29.1644 22.5174ZM22.6174 24.0743C22.3961 26.5087 21.1838 29.0264 19.2915 30.9819C17.507 32.8258 15.3212 33.9266 13.4442 33.9266C11.001 33.9266 9.19578 32.7541 7.92528 30.3419C6.82485 28.2527 6.43435 25.7388 6.43435 24.2208C6.43435 21.5873 7.00301 20.4436 8.68342 19.7186C10.4844 19.0889 12.388 18.7631 14.3343 18.7429H14.7155C16.3189 18.7589 17.9484 18.9812 19.5708 19.4111C20.4089 19.633 22.9597 20.3089 22.6174 24.0743ZM41.556 33.9266C39.6789 33.9266 37.4931 32.8258 35.7086 30.9819C33.8163 29.0264 32.604 26.5087 32.3827 24.0743C32.0404 20.3087 34.5912 19.633 35.4294 19.411C37.115 18.9644 38.8081 18.7417 40.4718 18.7417C42.4855 18.7417 44.4559 19.0679 46.3167 19.7185C47.9971 20.4434 48.5658 21.5872 48.5658 24.2207C48.5658 25.7387 48.1753 28.2526 47.0748 30.3418C45.8043 32.7541 43.9991 33.9266 41.556 33.9266Z" fill="black"/>
</g>
<defs>
<clipPath id="clip0">
<rect width="55" height="55" fill="white"/>
</clipPath>
</defs>
</svg>
