<svg width="55" height="55" viewBox="0 0 55 55" fill="none" xmlns="http://www.w3.org/2000/svg">
<path d="M53.1201 22.3975H51.7773V16.9727C51.7773 15.6992 50.7413 14.6631 49.4678 14.6631H46.0303C45.787 14.6631 45.5525 14.7014 45.332 14.7716V14.4482C45.332 12.7009 43.9104 11.2793 42.1631 11.2793H37.8662C36.1189 11.2793 34.6973 12.7009 34.6973 14.4482V23.9326H20.3027V14.4482C20.3027 12.7009 18.8811 11.2793 17.1338 11.2793H12.8369C11.0896 11.2793 9.66797 12.7009 9.66797 14.4482V14.7716C9.44754 14.7014 9.21304 14.6631 8.96973 14.6631H5.53223C4.25874 14.6631 3.22266 15.6992 3.22266 16.9727V18.0133C3.22266 18.4582 3.58338 18.8189 4.02832 18.8189C4.47326 18.8189 4.83398 18.4582 4.83398 18.0133V16.9727C4.83398 16.5877 5.14723 16.2744 5.53223 16.2744H8.96973C9.35473 16.2744 9.66797 16.5877 9.66797 16.9727V38.0273C9.66797 38.4123 9.35473 38.7256 8.96973 38.7256H5.53223C5.14723 38.7256 4.83398 38.4123 4.83398 38.0273V21.4606C4.83398 21.0157 4.47326 20.655 4.02832 20.655C3.58338 20.655 3.22266 21.0157 3.22266 21.4606V22.3975H1.87988C0.843369 22.3975 0 23.2408 0 24.2773V30.7227C0 31.7592 0.843369 32.6025 1.87988 32.6025H3.22266V38.0273C3.22266 39.3008 4.25874 40.3369 5.53223 40.3369H8.96973C9.21304 40.3369 9.44754 40.2986 9.66797 40.2284V40.5518C9.66797 42.2991 11.0896 43.7207 12.8369 43.7207H17.1338C18.8811 43.7207 20.3027 42.2991 20.3027 40.5518V31.0674H21.4754C21.9203 31.0674 22.281 30.7067 22.281 30.2617C22.281 29.8168 21.9203 29.456 21.4754 29.456H20.3027V25.544H34.6973V29.456H24.9679C24.5229 29.456 24.1622 29.8168 24.1622 30.2617C24.1622 30.7067 24.5229 31.0674 24.9679 31.0674H34.6973V40.5518C34.6973 42.2991 36.1189 43.7207 37.8662 43.7207H42.1631C43.9104 43.7207 45.332 42.2991 45.332 40.5518V40.2284C45.5525 40.2986 45.787 40.3369 46.0303 40.3369H49.4678C50.7413 40.3369 51.7773 39.3008 51.7773 38.0273V36.9394C51.7773 36.4944 51.4166 36.1337 50.9717 36.1337C50.5267 36.1337 50.166 36.4944 50.166 36.9394V38.0273C50.166 38.4123 49.8528 38.7256 49.4678 38.7256H46.0303C45.6453 38.7256 45.332 38.4123 45.332 38.0273V16.9727C45.332 16.5877 45.6453 16.2744 46.0303 16.2744H49.4678C49.8528 16.2744 50.166 16.5877 50.166 16.9727V33.4619C50.166 33.9069 50.5267 34.2676 50.9717 34.2676C51.4166 34.2676 51.7773 33.9069 51.7773 33.4619V32.6025H53.1201C54.1566 32.6025 55 31.7592 55 30.7227V24.2773C55 23.2408 54.1566 22.3975 53.1201 22.3975ZM1.87988 30.9912C1.73186 30.9912 1.61133 30.8707 1.61133 30.7227V24.2773C1.61133 24.1293 1.73186 24.0088 1.87988 24.0088H3.22266V30.9912H1.87988ZM18.6914 40.5518C18.6914 41.4106 17.9926 42.1094 17.1338 42.1094H12.8369C11.9781 42.1094 11.2793 41.4106 11.2793 40.5518V14.4482C11.2793 13.5894 11.9781 12.8906 12.8369 12.8906H17.1338C17.9926 12.8906 18.6914 13.5894 18.6914 14.4482V40.5518ZM43.7207 40.5518C43.7207 41.4106 43.0219 42.1094 42.1631 42.1094H37.8662C37.0074 42.1094 36.3086 41.4106 36.3086 40.5518V14.4482C36.3086 13.5894 37.0074 12.8906 37.8662 12.8906H42.1631C43.0219 12.8906 43.7207 13.5894 43.7207 14.4482V40.5518ZM53.3887 30.7227C53.3887 30.8707 53.2681 30.9912 53.1201 30.9912H51.7773V24.0088H53.1201C53.2681 24.0088 53.3887 24.1293 53.3887 24.2773V30.7227Z" fill="black"/>
</svg>
