<svg width="55" height="55" viewBox="0 0 55 55" fill="none" xmlns="http://www.w3.org/2000/svg">
<g clip-path="url(#clip0)">
<path d="M17.1189 0C16.6737 0 16.3129 0.360895 16.3129 0.806048V12.091H14.1822V0.806048C14.1822 0.360895 13.8214 0 13.3762 0C12.9309 0 12.5701 0.360895 12.5701 0.806048V12.091H10.487V0.806048C10.487 0.360895 10.1262 0 9.68092 0C9.23566 0 8.87487 0.360895 8.87487 0.806048V12.091H6.74003V0.806048C6.74003 0.360895 6.37924 0 5.93398 0C5.48872 0 5.12793 0.360895 5.12793 0.806048V17.4008C5.12793 19.1152 6.05177 20.7101 7.53877 21.5631L8.87487 22.3296V27.2731C8.33654 27.9025 8.03357 28.7127 8.03357 29.5463V30.3716C8.03357 30.8716 8.20682 31.332 8.49624 31.6958C8.20671 32.0596 8.03357 32.5199 8.03357 33.0199V45.6293C8.03357 46.0745 8.39436 46.4354 8.83962 46.4354C9.28488 46.4354 9.64567 46.0745 9.64567 45.6293V33.0198C9.64567 32.7342 9.87813 32.5017 10.1638 32.5017H12.8891C13.1748 32.5017 13.4071 32.7342 13.4071 33.0198V51.5071C13.4071 52.5441 12.5633 53.3879 11.5263 53.3879C10.4893 53.3879 9.64556 52.5441 9.64556 51.5071V49.3823C9.64556 48.9371 9.28477 48.5762 8.83951 48.5762C8.39425 48.5762 8.03347 48.9371 8.03347 49.3823V51.5071C8.03347 53.433 9.60032 55 11.5263 55C13.4524 55 15.0192 53.433 15.0192 51.5071V33.0198C15.0192 32.5197 14.846 32.0594 14.5565 31.6956C14.8461 31.3318 15.0192 30.8715 15.0192 30.3715V29.5462C15.0192 28.715 14.7176 27.9065 14.1821 27.2779V22.3293L15.5161 21.5632C17.0018 20.7099 17.9248 19.1154 17.9248 17.402L17.925 0.806048C17.925 0.360895 17.5641 0 17.1189 0V0ZM16.3128 17.402C16.3128 18.5398 15.6998 19.5986 14.7132 20.1652L12.9746 21.1637C12.7243 21.3075 12.57 21.574 12.57 21.8627V27.5974C12.57 27.8184 12.6608 28.0297 12.8211 28.1819C13.1991 28.5408 13.4071 29.0253 13.4071 29.5462V30.3715C13.4071 30.6571 13.1748 30.8896 12.8891 30.8896H10.1638C9.87813 30.8896 9.64567 30.6571 9.64567 30.3715V29.5462C9.64567 29.0239 9.85481 28.5384 10.2346 28.1792C10.3957 28.0269 10.487 27.8151 10.487 27.5935V21.8627C10.487 21.5739 10.3324 21.3073 10.082 21.1636L8.34095 20.1647C7.35348 19.5984 6.74003 18.5392 6.74003 17.4009V13.7033H16.3127V17.402H16.3128Z" fill="black"/>
<path d="M32.5374 13.5137C32.5374 15.1537 32.1775 16.4306 31.5241 17.1091C30.9007 17.7563 29.9484 17.8923 29.2593 17.8923C28.5702 17.8923 27.6178 17.7564 26.9945 17.109C26.3412 16.4306 25.9812 15.1538 25.9812 13.5137C25.9812 13.0685 25.6205 12.7076 25.1752 12.7076C24.7299 12.7076 24.3691 13.0685 24.3691 13.5137C24.3691 15.6029 24.8754 17.2328 25.8334 18.2272C26.8496 19.2827 28.2574 19.5042 29.2593 19.5042C30.2611 19.5042 31.6688 19.2826 32.6853 18.2274C33.6432 17.2327 34.1495 15.6028 34.1495 13.5137C34.1495 13.0685 33.7887 12.7076 33.3435 12.7076C32.8982 12.7076 32.5374 13.0685 32.5374 13.5137Z" fill="black"/>
<path d="M29.2599 0C27.0692 0 24.9821 1.63015 23.3829 4.59007C21.9819 7.18339 21.1455 10.5194 21.1455 13.5138C21.1455 18.1008 23.1261 21.2815 26.6083 22.3475V27.2731C26.07 27.9025 25.7671 28.7127 25.7671 29.5462V30.3715C25.7671 30.8714 25.9402 31.3317 26.2297 31.6955C25.9402 32.0593 25.767 32.5196 25.767 33.0197V51.507C25.767 53.4329 27.3339 54.9999 29.2599 54.9999C31.1859 54.9999 32.7527 53.4329 32.7527 51.507V39.5655C32.7527 39.1203 32.3919 38.7594 31.9467 38.7594C31.5014 38.7594 31.1406 39.1203 31.1406 39.5655V51.5071C31.1406 52.5441 30.2968 53.3879 29.2598 53.3879C28.2228 53.3879 27.3791 52.5441 27.3791 51.5071V33.0198C27.3791 32.7342 27.6115 32.5017 27.8972 32.5017H30.6225C30.9082 32.5017 31.1405 32.7342 31.1405 33.0198V35.8489C31.1405 36.2941 31.5013 36.655 31.9466 36.655C32.3918 36.655 32.7526 36.2941 32.7526 35.8489V33.0198C32.7526 32.5199 32.5795 32.0595 32.2899 31.6957C32.5795 31.332 32.7527 30.8716 32.7527 30.3716V29.5463C32.7527 28.7151 32.4511 27.9067 31.9155 27.278V22.3463C35.3949 21.2791 37.3741 18.0989 37.3741 13.5139C37.3741 10.5195 36.5377 7.1835 35.1367 4.59018C33.5376 1.63015 31.4506 0 29.2599 0V0ZM30.9339 20.9394C30.5654 21.0217 30.3035 21.3487 30.3035 21.7261V27.5975C30.3035 27.8186 30.3943 28.0298 30.5546 28.182C30.9327 28.5409 31.1407 29.0254 31.1407 29.5463V30.3716C31.1407 30.6572 30.9083 30.8897 30.6226 30.8897H27.8973C27.6116 30.8897 27.3793 30.6572 27.3793 30.3716V29.5463C27.3793 29.024 27.5884 28.5385 27.9682 28.1792C28.1292 28.0269 28.2205 27.8151 28.2205 27.5936V21.7271C28.2205 21.3494 27.9583 21.0224 27.5897 20.9403C24.4737 20.2463 22.7577 17.6089 22.7577 13.5139C22.7577 10.7746 23.5216 7.72517 24.8014 5.35646C26.0868 2.97679 27.7119 1.6121 29.2599 1.6121C30.808 1.6121 32.4329 2.97679 33.7184 5.35635C34.998 7.72506 35.7621 10.7746 35.7621 13.5138C35.7621 17.6071 34.0473 20.2443 30.9339 20.9394Z" fill="black"/>
<path d="M49.8728 33.8447C49.8728 33.0134 49.5712 32.2049 49.0356 31.5763V11.5522C49.0356 11.107 48.6748 10.7461 48.2295 10.7461C47.7843 10.7461 47.4235 11.107 47.4235 11.5522V31.8958C47.4235 32.1169 47.5143 32.3282 47.6746 32.4804C48.0526 32.8391 48.2607 33.3236 48.2607 33.8446V34.6698C48.2607 34.9555 48.0283 35.188 47.7427 35.188H45.0174C44.7317 35.188 44.4992 34.9555 44.4992 34.6698V33.8446C44.4992 33.3222 44.7084 32.8368 45.0882 32.4776C45.2493 32.3253 45.3405 32.1135 45.3405 31.8919V28.0946C45.3405 27.6495 44.9797 27.2886 44.5345 27.2886H42.6481V8.35774C42.6481 5.32646 44.6067 2.71583 47.4236 1.82649V7.87045C47.4236 8.31561 47.7844 8.6765 48.2296 8.6765C48.6749 8.6765 49.0357 8.31561 49.0357 7.87045V0.805603C49.0357 0.56841 48.9312 0.343361 48.7502 0.190104C48.569 0.0369552 48.3296 -0.0287108 48.0959 0.0107318C44.0052 0.698989 41.0361 4.20938 41.0361 8.35774V28.0948C41.0361 28.54 41.3969 28.9009 41.8422 28.9009H43.7285V31.5716C43.1902 32.201 42.8872 33.0112 42.8872 33.8448V34.6701C42.8872 35.1701 43.0605 35.6304 43.3499 35.9942C43.0604 36.358 42.8872 36.8183 42.8872 37.3184V51.5068C42.8872 53.4327 44.4541 54.9997 46.3801 54.9997C48.3061 54.9997 49.873 53.4327 49.873 51.5068V37.3183C49.873 36.8182 49.6997 36.3579 49.4103 35.9941C49.6999 35.6303 49.873 35.17 49.873 34.6699V33.8447H49.8728ZM48.2607 51.5067C48.2607 52.5437 47.4169 53.3875 46.3799 53.3875C45.3429 53.3875 44.4991 52.5437 44.4991 51.5067V37.3183C44.4991 37.0326 44.7315 36.8002 45.0172 36.8002H47.7426C48.0282 36.8002 48.2606 37.0326 48.2606 37.3183V51.5067H48.2607Z" fill="black"/>
</g>
<defs>
<clipPath id="clip0">
<rect width="55" height="55" fill="white"/>
</clipPath>
</defs>
</svg>
