<svg width="55" height="55" viewBox="0 0 55 55" fill="none" xmlns="http://www.w3.org/2000/svg">
<g clip-path="url(#clip0)">
<path d="M43.9814 8.53337L45.7248 7.96582L47.5152 13.4663L45.7718 14.0334L43.9814 8.53337Z" fill="black"/>
<path d="M41.2949 14.9507L43.0383 14.3832L44.8291 19.8827L43.0857 20.4507L41.2949 14.9507Z" fill="black"/>
<path d="M10.3843 17.6246C10.1909 19.0251 10.5996 20.4422 11.51 21.524L12.8335 23.1841V38.4998H14.6668V24.6298L15.9913 25.5125C16.2996 25.7179 16.7007 25.7179 17.0091 25.5125L19.2502 24.0166L21.4913 25.5107C21.7996 25.7161 22.2007 25.7161 22.5091 25.5107L24.7502 24.0166L26.9913 25.5107C27.2996 25.7161 27.7007 25.7161 28.0091 25.5107L30.2502 24.0166L32.4913 25.5107C32.7996 25.7161 33.2007 25.7161 33.5091 25.5107L35.7502 24.0166L37.5835 25.2386V53.1664H17.4168V54.9998H43.0835C45.6137 54.9966 47.6637 52.9467 47.6668 50.4164V22.9164C47.6646 22.715 47.5952 22.5199 47.4699 22.3619L52.7671 8.25918C53.4801 6.36453 53.2192 4.24116 52.0689 2.57567C50.9759 0.959865 49.1506 -0.00603668 47.2004 -0.000218C44.7145 0.0230567 42.5003 1.5762 41.6324 3.90591L40.1952 7.73192L38.5002 6.03689V2.74978C38.5002 2.24356 38.0897 1.83312 37.5835 1.83312H27.5002C26.9939 1.83312 26.5835 2.24356 26.5835 2.74978V4.32262C25.5473 3.38357 23.9843 3.33031 22.8864 4.19729V2.74978C22.8864 1.24946 21.6703 0.0329037 20.1695 0.0329037C18.6692 0.0329037 17.4526 1.24946 17.4526 2.74978V4.19819C16.9509 3.78237 16.3193 3.555 15.6676 3.55634C14.9112 3.55455 14.1861 3.85981 13.6584 4.40274C12.5712 5.52306 12.5645 7.30268 13.6427 8.4315L14.4963 9.31236C14.1857 9.4547 13.9037 9.65253 13.6642 9.89602L13.6584 9.8996L13.6495 9.909C13.436 10.1283 13.2592 10.3808 13.1267 10.6569L12.082 8.72736L10.4693 9.60016L12.8398 13.9754C12.7337 14.0358 12.6272 14.0944 12.5264 14.1634C12.4889 14.1889 12.4557 14.2184 12.419 14.2439L8.87187 10.9752L7.62891 12.3233L11.1523 15.5719C10.7477 16.1909 10.4854 16.8919 10.3843 17.6246ZM29.7413 22.1538L27.5002 23.6496L25.2591 22.1555C24.9507 21.9501 24.5496 21.9501 24.2413 22.1555L22.0212 23.6362C22.0158 23.5444 22.0002 23.4647 22.0002 23.3766C21.9943 21.362 23.4486 19.6392 25.4354 19.3071C27.4227 18.9745 29.3581 20.1302 30.008 22.0374C29.9136 22.062 29.8236 22.1009 29.7413 22.1538ZM32.0835 23.0373L32.066 23.0257C31.9559 21.0988 30.918 19.3451 29.2816 18.3215C27.6456 17.2978 25.6145 17.1313 23.8335 17.8748V11.9164H32.0835V23.0373ZM45.8335 50.4164C45.8335 51.9351 44.6022 53.1664 43.0835 53.1664H39.4168V25.2403L41.2502 24.0166L43.4913 25.5107C43.7996 25.7161 44.2007 25.7161 44.5091 25.5107L45.8335 24.6298V50.4164ZM43.3485 4.54999C43.946 2.93419 45.4777 1.85415 47.2004 1.83312C48.5477 1.83043 49.8077 2.49868 50.5619 3.61498C51.3711 4.78722 51.5537 6.28172 51.0511 7.61465L45.3752 22.7329L44.0002 23.6496L41.7591 22.1555C41.4507 21.9501 41.0496 21.9501 40.7413 22.1555L38.5002 23.6496L36.6404 22.4098L43.3485 4.54999ZM39.4875 9.61673L34.6227 22.5664L33.9168 23.0373V11.3793L37.5835 7.71267L39.4875 9.61673ZM28.4168 3.66645H36.6668V5.49978H28.4168V3.66645ZM27.8797 7.33312H35.3706L32.6206 10.0831H25.1297L27.8797 7.33312ZM14.9667 5.68867C15.1507 5.49889 15.4036 5.39147 15.6676 5.39147C15.9322 5.39191 16.1851 5.49889 16.369 5.68867L17.7149 7.06367C17.9763 7.33043 18.3733 7.41144 18.7184 7.26956C19.0635 7.12722 19.2882 6.78974 19.286 6.41645V2.74978C19.2712 2.42438 19.4364 2.11734 19.7157 1.95038C19.9954 1.78299 20.3441 1.78299 20.6234 1.95038C20.9031 2.11734 21.0683 2.42438 21.0531 2.74978V6.41645C21.0535 6.7884 21.2786 7.1232 21.6233 7.26374C21.9675 7.40473 22.3627 7.32327 22.6237 7.05829L23.9736 5.68329C24.3603 5.30239 24.9807 5.30239 25.3669 5.68329C25.7653 6.09105 25.7653 6.74185 25.3669 7.1496L22.6666 9.8996L22.6939 9.92735L22.2687 10.3526C22.1949 10.4287 22.1353 10.5173 22.0919 10.614C22.0789 10.6422 22.0718 10.6708 22.0615 10.6999C22.0342 10.7782 22.0176 10.8597 22.0122 10.942C22.0122 10.9622 22.0011 10.9787 22.0011 10.9989V19.0846C21.7925 19.2842 21.5987 19.4986 21.4219 19.7265L19.6901 16.0414C19.051 14.7698 17.8958 13.8344 16.5185 13.475C16.198 13.3922 15.8695 13.342 15.5387 13.3264L15.3038 13.0511C15.1207 12.8412 14.9824 12.6774 14.96 12.6545C14.7232 12.4066 14.6207 12.0592 14.6852 11.7222C14.7192 11.5306 14.8074 11.3534 14.939 11.2106L14.9555 11.1949L14.9784 11.1703C15.3105 10.8449 15.8247 10.797 16.2115 11.0548C16.6004 11.3149 17.1223 11.2401 17.4231 10.8821C17.7239 10.5235 17.7064 9.99673 17.3828 9.6588L14.96 7.15811C14.5666 6.74632 14.5697 6.09687 14.9667 5.68867ZM12.201 17.8748C12.3206 16.9863 12.8125 16.1905 13.5541 15.6865C14.2895 15.1892 15.203 15.0317 16.0629 15.2541C16.9222 15.477 17.6447 16.0585 18.0457 16.8507L20.3821 21.8275C20.3244 22.0419 20.2787 22.2594 20.2456 22.4792L19.7627 22.1564C19.4547 21.951 19.0532 21.951 18.7453 22.1564L16.5002 23.6496L14.4672 22.293L14.2707 22.0468L16.634 20.2197L15.5119 18.7695L13.1289 20.6127L12.9253 20.3589C12.342 19.6714 12.0789 18.7682 12.201 17.8748Z" fill="black"/>
<path d="M3.7913 52.7137C4.48775 54.1187 5.92273 55.0053 7.49064 55C8.13293 54.9991 8.76583 54.8496 9.34054 54.5636L10.084 54.1916L10.8283 54.5636C11.4026 54.8496 12.0355 54.9991 12.6773 55C14.2457 55.0053 15.6802 54.1187 16.3771 52.7137L16.6967 52.0723C17.77 49.9185 18.3304 47.5458 18.334 45.1395C18.3309 42.4862 16.1811 40.3364 13.5278 40.3333C12.6335 40.336 11.7575 40.5898 11.0007 41.0664V40.3333C11.0007 38.3084 9.35889 36.6666 7.33398 36.6666V38.5C8.34644 38.5 9.16732 39.3208 9.16732 40.3333V41.0664C8.41044 40.5898 7.53451 40.336 6.64022 40.3333C3.9869 40.3364 1.83712 42.4862 1.83398 45.1395C1.83712 47.5462 2.3975 49.9198 3.47127 52.0741L3.7913 52.7137ZM6.64022 42.1666C7.42887 42.1644 8.18575 42.4781 8.74211 43.0376L9.43587 43.7314C9.79395 44.089 10.374 44.089 10.7321 43.7314L11.4259 43.0376C12.2763 42.1872 13.5546 41.933 14.6655 42.3931C15.7764 42.8532 16.5007 43.9373 16.5007 45.1395C16.4984 47.262 16.0043 49.3549 15.0567 51.2545L14.7371 51.8964C14.3482 52.6774 13.5497 53.1698 12.6773 53.1666C12.3202 53.1662 11.9679 53.0829 11.6479 52.9236L10.494 52.3462C10.2357 52.2173 9.93225 52.2173 9.67444 52.3462L8.521 52.9236C8.20097 53.0829 7.84827 53.1662 7.49064 53.1666C6.61784 53.1693 5.81889 52.6756 5.43083 51.8932L5.11125 51.2518C4.16414 49.3531 3.67 47.2611 3.66732 45.1395C3.66956 43.4987 4.99935 42.1689 6.64022 42.1666Z" fill="black"/>
</g>
<defs>
<clipPath id="clip0">
<rect width="55" height="55" fill="white"/>
</clipPath>
</defs>
</svg>
