<svg width="55" height="55" viewBox="0 0 55 55" fill="none" xmlns="http://www.w3.org/2000/svg">
<g clip-path="url(#clip0)">
<path d="M30.076 9.09659H23.7001V1.61133H25.0429C25.4879 1.61133 25.8487 1.25061 25.8487 0.805664C25.8487 0.360723 25.4879 0 25.0429 0H8.79731C8.35237 0 7.99154 0.360723 7.99154 0.805664C7.99154 1.25061 8.35227 1.61133 8.79731 1.61133H10.1402V9.09659H3.76428C1.68856 9.09659 0 10.785 0 12.8605V47.7643C0 49.656 1.40282 51.2262 3.22287 51.4893V52.583C3.22287 53.9158 4.30719 55 5.64008 55C6.97297 55 8.05728 53.9158 8.05728 52.583V51.5282H25.7831V52.583C25.7831 53.9158 26.8674 55 28.2003 55C29.5331 55 30.6175 53.9158 30.6175 52.583V51.4893C32.4375 51.2261 33.8404 49.656 33.8404 47.7643V18.9938C33.8404 18.5489 33.4796 18.1881 33.0346 18.1881C32.5895 18.1881 32.2288 18.5489 32.2288 18.9938V47.7643C32.2288 48.9513 31.2631 49.9169 30.0761 49.9169H3.76428C2.57727 49.9169 1.61154 48.9513 1.61154 47.7643V12.8605C1.61154 11.6735 2.57727 10.7079 3.76428 10.7079H30.076C31.2631 10.7079 32.2287 11.6735 32.2287 12.8605V15.2222C32.2287 15.6672 32.5894 16.0279 33.0345 16.0279C33.4795 16.0279 33.8403 15.6672 33.8403 15.2222V12.8605C33.8401 10.785 32.1516 9.09659 30.076 9.09659ZM29.0058 51.5282V52.583C29.0058 53.0273 28.6444 53.3887 28.2001 53.3887C27.7558 53.3887 27.3943 53.0273 27.3943 52.583V51.5282H29.0058ZM6.44574 51.5282V52.583C6.44574 53.0273 6.08427 53.3887 5.63997 53.3887C5.19567 53.3887 4.83431 53.0273 4.83431 52.583V51.5282H6.44574ZM11.7516 1.61133H22.0886V9.09659H11.7516V1.61133Z" fill="black"/>
<path d="M10.9332 48.3057H29.8114C30.2564 48.3057 30.6172 47.9449 30.6172 47.5V29.5605C30.6172 29.1156 30.2564 28.7549 29.8114 28.7549H4.02843C3.58349 28.7549 3.22266 29.1156 3.22266 29.5605V47.5C3.22266 47.9449 3.58338 48.3057 4.02843 48.3057H7.2513C7.69624 48.3057 8.05707 47.9449 8.05707 47.5C8.05707 47.0551 7.69635 46.6943 7.2513 46.6943H4.83409V30.3662H29.0056V46.6943H10.9332C10.4882 46.6943 10.1274 47.0551 10.1274 47.5C10.1274 47.9449 10.4882 48.3057 10.9332 48.3057Z" fill="black"/>
<path d="M24.0111 36.9721C24.456 36.9721 24.8168 36.6114 24.8168 36.1665V33.5496H26.5894C27.0344 33.5496 27.3952 33.1888 27.3952 32.7439C27.3952 32.299 27.0344 31.9382 26.5894 31.9382H7.25206C6.80712 31.9382 6.44629 32.299 6.44629 32.7439C6.44629 33.1888 6.80701 33.5496 7.25206 33.5496H23.2053V36.1665C23.2053 36.6114 23.566 36.9721 24.0111 36.9721Z" fill="black"/>
<path d="M22.2919 21.9796C22.7368 21.9796 23.0976 21.6189 23.0976 21.174V17.9513C23.0976 17.5064 22.7369 17.1456 22.2919 17.1456H11.5489C11.104 17.1456 10.7432 17.5064 10.7432 17.9513V21.174C10.7432 21.6189 11.1039 21.9796 11.5489 21.9796H22.2919ZM12.3547 18.757H21.4862V20.3683H12.3547V18.757Z" fill="black"/>
<path d="M51.2359 25.1759H44.8318V22.1109C44.8318 20.6977 43.6821 19.5481 42.2688 19.5481H36.2043C35.7593 19.5481 35.3985 19.9088 35.3985 20.3538C35.3985 20.7987 35.7593 21.1594 36.2043 21.1594H42.2688C42.7935 21.1594 43.2204 21.5863 43.2204 22.1109V25.1759H36.2043C35.7593 25.1759 35.3985 25.5367 35.3985 25.9816C35.3985 26.4265 35.7593 26.7873 36.2043 26.7873H43.2204V28.3979L41.5173 30.1327C41.3695 30.2833 41.2866 30.486 41.2866 30.6971V35.6385C41.2866 36.0834 41.6473 36.4442 42.0923 36.4442H45.9598C46.4049 36.4442 46.7656 36.0834 46.7656 35.6385V30.6971C46.7656 30.486 46.6827 30.2833 46.5349 30.1327L44.8318 28.3979V26.7873H51.2359C52.423 26.7873 53.3887 27.7529 53.3887 28.9399V41.6365H50.6476C50.2026 41.6365 49.8418 41.9972 49.8418 42.4422C49.8418 42.8871 50.2026 43.2478 50.6476 43.2478H53.3887V45.3709H36.2042C35.7592 45.3709 35.3984 45.7316 35.3984 46.1766C35.3984 46.6215 35.7592 46.9822 36.2042 46.9822H53.3887V47.7643C53.3887 48.9513 52.4229 49.9169 51.2359 49.9169H36.2042C35.7592 49.9169 35.3984 50.2776 35.3984 50.7226C35.3984 51.1675 35.7592 51.5282 36.2042 51.5282H47.2072V52.583C47.2072 53.9158 48.2915 55 49.6244 55C50.9573 55 52.0416 53.9158 52.0416 52.583V51.4414C53.7314 51.0715 55.0001 49.5632 55.0001 47.7642V28.9399C55.0001 26.8644 53.3115 25.1759 51.2359 25.1759ZM45.154 34.8328H42.898V31.0264L44.026 29.8775L45.1541 31.0264V34.8328H45.154ZM50.4301 52.5829C50.4301 53.0272 50.0686 53.3886 49.6243 53.3886C49.18 53.3886 48.8185 53.0272 48.8185 52.5829V51.5281H50.43V52.5829H50.4301Z" fill="black"/>
<path d="M36.2042 43.2478H46.9243C47.3693 43.2478 47.73 42.8871 47.73 42.4421C47.73 41.9972 47.3693 41.6365 46.9243 41.6365H36.2042C35.7592 41.6365 35.3984 41.9972 35.3984 42.4421C35.3984 42.8871 35.7592 43.2478 36.2042 43.2478Z" fill="black"/>
<g clip-path="url(#clip1)">
<path d="M31.2655 12.9505H30.4599C30.3798 12.9505 30.3094 12.8993 30.2846 12.8232L30.0393 12.068C29.8914 11.6128 29.2967 11.5691 29.0752 11.9652H28.5312C28.4774 11.9652 28.4301 11.9307 28.4134 11.8796L28.2095 11.2521C28.0667 10.8121 27.4586 10.8115 27.3154 11.2521L27.1115 11.8797C27.0949 11.9308 27.0476 11.9652 26.9946 11.9652L26.3596 11.9618C25.9056 11.9618 25.7154 12.5419 26.0812 12.8105C26.6443 13.2442 26.5874 13.2004 26.5913 13.2033C26.6349 13.235 26.6531 13.2906 26.6364 13.3418L26.4325 13.9695C26.2916 14.4033 26.7881 14.7682 27.1558 14.5011C27.1786 14.4847 27.03 14.594 27.69 14.1069C27.7064 14.0951 27.725 14.0877 27.7445 14.0849L28.1463 14.3768C28.2111 14.4239 28.238 14.5066 28.2132 14.5828L27.9678 15.338C27.8088 15.8273 28.3689 16.24 28.7841 15.9384C28.8084 15.9203 28.6395 16.0451 29.4269 15.464C29.4915 15.4173 29.5781 15.4173 29.6427 15.464L30.2844 15.9376C30.7134 16.242 31.2582 15.8194 31.1017 15.338L30.8564 14.5828C30.8317 14.5068 30.8584 14.4243 30.9228 14.3772C31.6882 13.8309 31.5595 13.9227 31.5772 13.9101C31.9926 13.6083 31.7797 12.9505 31.2655 12.9505ZM26.9519 14.2213C26.8883 14.2672 26.8311 14.2356 26.8094 14.2199C26.7915 14.2069 26.7352 14.1581 26.7617 14.0764L26.9656 13.4488C27.0285 13.2555 26.9608 13.0453 26.7971 12.9249C26.2351 12.4921 26.2908 12.5349 26.2869 12.532C26.2193 12.4829 26.2353 12.4136 26.2419 12.3936C26.2484 12.3735 26.2761 12.308 26.3587 12.308L26.9937 12.3113C27.1981 12.3113 27.3777 12.1808 27.4407 11.9866L27.6447 11.359C27.6713 11.2769 27.736 11.268 27.7625 11.268C27.8156 11.268 27.8606 11.2983 27.8803 11.359L28.0842 11.9866C28.1474 12.1809 28.3271 12.3113 28.5312 12.3113H28.9513L28.785 12.8232C28.7602 12.8993 28.6898 12.9505 28.6097 12.9505H27.8157C27.3341 12.9505 27.109 13.5342 27.4431 13.8588L26.9519 14.2213ZM31.3743 13.6296C30.6089 14.1759 30.7375 14.0841 30.7198 14.0967C30.5333 14.2322 30.4559 14.4705 30.5272 14.6897L30.7725 15.4449C30.8037 15.541 30.7568 15.6174 30.7025 15.6569C30.6772 15.6752 30.5874 15.7295 30.4894 15.6586C29.7023 15.0777 29.8708 15.2022 29.8466 15.1842C29.6696 15.0556 29.4239 15.0417 29.222 15.185L28.5802 15.6586C28.4822 15.7295 28.3924 15.6753 28.3672 15.6569C28.3128 15.6174 28.2659 15.541 28.2971 15.4449L28.5425 14.6898C28.6137 14.4705 28.5363 14.2322 28.3498 14.0967C27.6326 13.5756 29.0978 14.6402 27.7074 13.63C27.6069 13.557 27.6308 13.4538 27.6405 13.424C27.6502 13.3941 27.6915 13.2967 27.8157 13.2967H28.6098C28.8403 13.2967 29.043 13.1494 29.1142 12.9301C29.3653 12.1576 28.8281 13.8108 29.3596 12.175C29.4 12.0508 29.5039 12.0412 29.5349 12.0412C29.5658 12.0412 29.6697 12.0508 29.7101 12.175L29.9555 12.9301C30.0267 13.1494 30.2294 13.2967 30.4599 13.2967H31.2655C31.3898 13.2967 31.4311 13.3941 31.4408 13.424C31.4504 13.4538 31.4742 13.5566 31.3743 13.6296Z" fill="black"/>
<path d="M29.5346 13.4838C29.2355 13.4838 28.9922 13.7271 28.9922 14.0261C28.9922 14.3252 29.2355 14.5685 29.5346 14.5685C29.8336 14.5685 30.0769 14.3252 30.0769 14.0261C30.0769 13.7271 29.8336 13.4838 29.5346 13.4838ZM29.5346 14.2223C29.4264 14.2223 29.3384 14.1343 29.3384 14.0261C29.3384 13.918 29.4264 13.83 29.5346 13.83C29.6427 13.83 29.7307 13.918 29.7307 14.0261C29.7307 14.1343 29.6427 14.2223 29.5346 14.2223Z" fill="black"/>
</g>
</g>
<defs>
<clipPath id="clip0">
<rect width="55" height="55" fill="white"/>
</clipPath>
<clipPath id="clip1">
<rect width="5.9082" height="5.9082" fill="white" transform="translate(25.8887 10.5273)"/>
</clipPath>
</defs>
</svg>
