<svg width="55" height="55" viewBox="0 0 55 55" fill="none" xmlns="http://www.w3.org/2000/svg">
<g clip-path="url(#clip0)">
<path d="M54.6032 23.0007C54.3573 22.8556 54.0531 22.8508 53.8031 22.9884L43.741 28.5282V26.5978C43.741 24.5524 42.0769 22.8883 40.0315 22.8883H37.9336C40.771 21.0674 42.6549 17.8845 42.6549 14.2699C42.6549 12.453 42.1724 10.6683 41.2597 9.10857C41.0344 8.72368 40.54 8.59413 40.1553 8.81961C39.7705 9.04477 39.6412 9.53923 39.8663 9.92401C40.6345 11.2366 41.0404 12.7394 41.0404 14.27C41.0404 19.0222 37.1742 22.8884 32.422 22.8884C27.6697 22.8884 23.8035 19.0222 23.8035 14.27C23.8035 9.51775 27.6697 5.65142 32.422 5.65142C34.4459 5.65142 36.4127 6.36685 37.9599 7.66601C38.3015 7.95271 38.8105 7.90846 39.0972 7.56675C39.3839 7.22536 39.3395 6.71618 38.998 6.42947C37.1604 4.88657 34.825 4.03687 32.422 4.03687C27.4245 4.03687 23.2535 7.63829 22.3649 12.3818C21.0041 10.7306 18.9442 9.67608 16.6423 9.67608C12.5546 9.67608 9.22905 13.0018 9.22905 17.0895C9.22905 19.4356 10.3257 21.5291 12.032 22.8885C9.98853 22.8908 8.32671 24.5539 8.32671 26.5979V26.7287H5.04003L1.15319 24.8873C0.64132 24.6262 -0.0166393 25.0426 0.000333387 25.6168V35.6343C-0.0169615 36.2088 0.642179 36.625 1.15319 36.3639L5.04003 34.5226H8.32682V47.2532C8.32682 49.2988 9.99089 50.9628 12.0363 50.9628H33.0562C33.502 50.9628 33.8635 50.6015 33.8635 50.1555C33.8635 49.7096 33.5021 49.3483 33.0562 49.3483H12.0363C10.8811 49.3483 9.94126 48.4084 9.94126 47.2531V26.5979C9.94126 25.4427 10.8811 24.5029 12.0363 24.5029H40.0315C41.1867 24.5029 42.1266 25.4426 42.1266 26.5979V47.2533C42.1266 48.4085 41.1867 49.3485 40.0315 49.3485H36.2851C35.8393 49.3485 35.4778 49.7099 35.4778 50.1558C35.4778 50.6017 35.8392 50.963 36.2851 50.963H40.0315C42.0769 50.963 43.741 49.299 43.741 47.2534V40.846L53.8031 46.3858C54.3155 46.6888 55.0181 46.2738 54.9997 45.6786V23.6957C54.9997 23.4102 54.8489 23.1459 54.6032 23.0007ZM1.61478 26.8925L4.05111 28.0467V33.2046L1.61478 34.3588V26.8925ZM5.66566 32.9082V28.3431H8.32682V32.9082H5.66566ZM10.8435 17.0895C10.8435 13.892 13.4448 11.2905 16.6423 11.2905C19.8399 11.2905 22.4413 13.892 22.4413 17.0895C22.4413 20.287 19.84 22.8884 16.6423 22.8884C13.4449 22.8884 10.8435 20.287 10.8435 17.0895ZM21.2529 22.8884C22.3397 22.0226 23.1781 20.859 23.644 19.5214C24.4594 20.8793 25.5796 22.0341 26.911 22.8884H21.2529ZM53.3852 44.3128L43.7411 39.003V30.3713L53.3852 25.0616V44.3128Z" fill="black"/>
<path d="M28.3066 14.27C28.3066 16.5393 30.1528 18.3854 32.4221 18.3854C34.6913 18.3854 36.5375 16.5393 36.5375 14.27C36.5375 12.0007 34.6914 10.1545 32.4221 10.1545C30.1528 10.1545 28.3066 12.0007 28.3066 14.27ZM34.923 14.27C34.923 15.649 33.8011 16.7709 32.4221 16.7709C31.043 16.7709 29.9211 15.649 29.9211 14.27C29.9211 12.891 31.043 11.769 32.4221 11.769C33.8011 11.7691 34.923 12.891 34.923 14.27Z" fill="black"/>
<path d="M16.6427 19.9978C18.2464 19.9978 19.5511 18.6931 19.5511 17.0895C19.5511 15.4859 18.2464 14.1813 16.6427 14.1813C15.0391 14.1813 13.7344 15.4859 13.7344 17.0895C13.7345 18.6932 15.0391 19.9978 16.6427 19.9978ZM16.6427 15.7957C17.3562 15.7957 17.9366 16.3761 17.9366 17.0895C17.9366 17.803 17.3562 18.3834 16.6427 18.3834C15.9293 18.3834 15.3489 17.803 15.3489 17.0895C15.3489 16.3761 15.9293 15.7957 16.6427 15.7957Z" fill="black"/>
<path d="M35.4778 39.0311V30.2247C35.4778 29.1862 34.6328 28.3412 33.5943 28.3412H24.8629C24.4171 28.3412 24.0557 28.7026 24.0557 29.1485C24.0557 29.5944 24.417 29.9557 24.8629 29.9557H33.5943C33.7426 29.9557 33.8634 30.0764 33.8634 30.2248V39.0312C33.8634 39.1796 33.7426 39.3003 33.5943 39.3003H18.4734C18.325 39.3003 18.2043 39.1796 18.2043 39.0312V30.2248C18.2043 30.0764 18.325 29.9557 18.4734 29.9557H21.6341C22.0799 29.9557 22.4413 29.5944 22.4413 29.1485C22.4413 28.7026 22.08 28.3412 21.6341 28.3412H18.4734C17.4348 28.3412 16.5898 29.1862 16.5898 30.2247V39.0311C16.5898 40.0696 17.4348 40.9146 18.4734 40.9146H33.5943C34.6328 40.9146 35.4778 40.0696 35.4778 39.0311Z" fill="black"/>
<path d="M30.3775 43.7205C29.9317 43.7205 29.5703 44.0818 29.5703 44.5277C29.5703 44.9736 29.9317 45.335 30.3775 45.335H32.3911C32.8369 45.335 33.1984 44.9736 33.1984 44.5277C33.1984 44.0818 32.837 43.7205 32.3911 43.7205H30.3775Z" fill="black"/>
<path d="M25.028 43.7205C24.5822 43.7205 24.2207 44.0818 24.2207 44.5277C24.2207 44.9736 24.5821 45.335 25.028 45.335H27.0417C27.4875 45.335 27.849 44.9736 27.849 44.5277C27.849 44.0818 27.4876 43.7205 27.0417 43.7205H25.028Z" fill="black"/>
<path d="M19.6784 43.7205C19.2326 43.7205 18.8711 44.0818 18.8711 44.5277C18.8711 44.9736 19.2326 45.335 19.6784 45.335H21.6921C22.1379 45.335 22.4994 44.9736 22.4994 44.5277C22.4994 44.0818 22.138 43.7205 21.6921 43.7205H19.6784Z" fill="black"/>
</g>
<defs>
<clipPath id="clip0">
<rect width="55" height="55" fill="white"/>
</clipPath>
</defs>
</svg>
