<svg id="Capa_1" enable-background="new 0 0 511.987 511.987" height="512" viewBox="0 0 511.987 511.987" width="512" xmlns="http://www.w3.org/2000/svg"><g><g fill="#ffcec0"><path d="m106.406 348.088h122.637v134.755h-122.637z"/><path d="m282.944 348.088h122.637v134.755h-122.637z"/></g><g><g><path d="m85.378 267.45v-121.002c0-13.586-11.013-24.599-24.599-24.599-13.586 0-24.599 11.013-24.599 24.599v121.002z" fill="#ea806f"/><g><path d="m69.544 267.45v-83.993c0-13.586-11.013-24.599-24.599-24.599-13.586 0-24.599 11.013-24.599 24.599v83.993z" fill="#fdb0a0"/><path d="m69.544 183.461v83.99h-32.69v-83.99c0-7.31-3.19-13.88-8.25-18.38 4.34-3.87 10.07-6.22 16.34-6.22 13.589.001 24.6 11.011 24.6 24.6z" fill="#f69583"/></g><path d="m475.808 267.45v-121.002c0-13.586-11.013-24.599-24.599-24.599s-24.599 11.013-24.599 24.599v121.002z" fill="#ea806f"/><g><path d="m491.642 267.45v-83.993c0-13.586-11.013-24.599-24.599-24.599s-24.599 11.013-24.599 24.599v83.993z" fill="#fdb0a0"/><path d="m491.644 183.461v83.99h-24.6v-83.99c0-9.11-4.95-17.06-12.3-21.3 3.62-2.1 7.82-3.3 12.3-3.3 13.58.001 24.6 11.011 24.6 24.6z" fill="#f69583"/></g><g><circle cx="255.994" cy="234.125" fill="#31a7fb" r="204.982"/><path d="m186.544 266.645v27.049c0 1.735-.452 3.441-1.311 4.949l-55.309 97.109c-48.03-37.51-78.91-95.96-78.91-161.63 0-37.17 9.89-72.02 27.18-102.07l62.042 29.207c3.006 1.415 5.113 4.231 5.623 7.514l2.327 15.001c.637 4.104-1.33 8.175-4.94 10.227l-26.368 14.987c-2.973 1.69-4.876 4.782-5.046 8.197l-1.079 21.718c-.223 4.494 2.582 8.584 6.855 9.993l29.62 9.769c1.33.439 2.737.593 4.13.453l24.189-2.425c5.887-.589 10.997 4.035 10.997 9.952z" fill="#27e19d"/><path d="m460.974 234.122c0 113.21-91.77 204.98-204.98 204.98-22.39 0-43.95-3.59-64.12-10.24 6.78.68 13.65 1.03 20.6 1.03 113.21 0 204.98-91.77 204.98-204.98 0-90.81-59.05-167.83-140.86-194.74 103.54 10.32 184.38 97.69 184.38 203.95z" fill="#1c96f9"/><path d="m460.973 234.122c0 72.17-37.3 135.63-93.67 172.15l-51.69-28.12c-1.08-.59-2.25-.97-3.47-1.13l-22.2-2.93c-4.69-.62-8.31-4.45-8.66-9.17l-2.49-33.41c-.3-4.01 1.84-7.81 5.41-9.64l78.29-40.11c2.46-1.26 4.29-3.49 5.06-6.14l17.86-62.22c.77-2.69.38-5.59-1.09-7.98l-10.65-17.39c-1.91-3.11-5.37-4.94-9.02-4.76l-20.62 1.01c-4.72.23-8.63 3.72-9.38 8.39l-7.26 44.8c-.6 3.69-3.19 6.73-6.74 7.9l-34.36 11.33c-4.62 1.52-9.66-.5-11.95-4.79l-21.72-40.69c-1.27-2.39-1.52-5.19-.69-7.77l7.9-24.6c1.04-3.22 3.62-5.7 6.88-6.59l32.65-8.94c3.32-.91 5.93-3.46 6.93-6.75l17.32-57.21c1.56-5.17-1.27-10.66-6.39-12.38l-27.41-9.19c-2.39-.8-4.98-.67-7.28.36l-23.39 10.51c-2.04.91-4.33 1.12-6.5.58l-32.33-8.03c-3.23-.8-5.84-3.15-6.99-6.27l-13.86-37.9c17.95-5.15 36.92-7.9 56.53-7.9 113.211-.001 204.98 91.78 204.98 204.98z" fill="#27e19d"/><path d="m460.973 234.122c0 72.17-37.3 135.63-93.67 172.15l-31.87-17.34c49.81-37.4 82.02-96.95 82.02-164.02 0-90.81-59.05-167.82-140.85-194.74 103.531 10.33 184.37 97.709 184.37 203.95z" fill="#26d192"/></g><g><g><g><path d="m74.31 334.483-14.285-73.628c-3.083-15.942-19.642-25.432-34.986-19.967-12.473 4.442-19.566 17.641-17.036 30.638l14.614 75.077 6.706 34.449c10.01 51.423 59.811 84.994 111.233 74.984l8.313-1.618c11.412-2.221 18.862-13.273 16.64-24.685l-3.112-15.988c-7.978-40.982-40.995-72.44-82.315-78.426z" fill="#ffdfd0"/></g><g><path d="m148.869 454.415-5.325 1.037-5.92-30.44c-7.98-40.98-41-72.44-82.32-78.42-3.456-.503-6.216-3.136-6.881-6.564l-13.179-67.906c-2.27-11.78-11.92-20.04-22.99-21.34 3.04-4.44 7.41-7.98 12.78-9.89 15.35-5.47 31.91 4.02 34.99 19.96l14.29 73.63 5.77.84c41.32 5.98 74.34 37.44 82.31 78.42l3.114 15.985c2.223 11.412-5.227 22.466-16.639 24.688z" fill="#ffcec0"/></g></g></g><g><g><g><path d="m437.677 334.483 14.285-73.628c3.083-15.942 19.642-25.432 34.986-19.967 12.473 4.442 19.566 17.641 17.036 30.638l-14.614 75.077-6.706 34.449c-10.01 51.423-59.811 84.994-111.233 74.984l-8.313-1.618c-11.412-2.221-18.862-13.273-16.64-24.685l3.112-15.988c7.978-40.982 40.995-72.44 82.315-78.426z" fill="#ffdfd0"/></g><g><path d="m503.984 271.521-14.61 75.08-6.71 34.45c-10.01 51.42-59.81 84.99-111.23 74.98l-9.92-1.93c45.39 1.07 86.28-30.66 95.25-76.73l6.7-34.45 14.62-75.07c1.99-10.21-1.97-20.55-9.8-26.65 5.73-2.27 12.31-2.58 18.67-.31 12.47 4.44 19.56 17.64 17.03 30.63z" fill="#ffcec0"/></g></g></g></g><g><path d="m139.122 448.674c-22.551 4.39-45.541-.154-64.734-12.796-3.458-2.276-8.11-1.321-10.389 2.138-2.278 3.459-1.321 8.11 2.138 10.389 10.166 6.696 21.243 11.437 32.769 14.165v20.274c0 4.142 3.358 7.5 7.5 7.5s7.5-3.358 7.5-7.5v-17.892c2.774.229 5.561.356 8.357.356 6.555 0 13.157-.632 19.725-1.911 4.066-.792 6.72-4.729 5.929-8.795-.792-4.066-4.729-6.722-8.795-5.928z"/><path d="m499.142 239.262v-55.805c0-11.766-6.368-22.068-15.834-27.657v-9.353c0-17.7-14.399-32.099-32.099-32.099-5.971 0-11.701 1.632-16.68 4.67-13.726-21.223-31.2-40.071-51.517-55.245-36.906-27.562-80.828-42.131-127.019-42.131-74.774 0-140.644 38.829-178.524 97.377-4.978-3.042-10.708-4.671-16.691-4.671-17.7 0-32.099 14.399-32.099 32.099v9.353c-9.466 5.589-15.834 15.891-15.834 27.657v55.804c-9.672 7.819-14.717 20.789-12.205 33.696l21.32 109.526c2.742 14.086 8.263 27.165 16.409 38.873 2.365 3.4 7.04 4.237 10.44 1.873 3.4-2.366 4.238-7.04 1.873-10.44-6.947-9.985-11.657-21.145-13.998-33.171l-21.32-109.526c-1.847-9.488 3.394-19.006 12.19-22.139 5.245-1.867 11.02-1.357 15.847 1.398 4.829 2.757 8.204 7.469 9.26 12.932l14.285 73.629c.608 3.132 3.13 5.537 6.288 5.994l5.772.836c38.116 5.522 68.67 34.632 76.029 72.437l2.368 12.161c.697 3.582 3.836 6.068 7.354 6.068.475 0 .958-.045 1.441-.14 2.42-.471 4.333-2.061 5.324-4.126 16.091 6.997 32.811 11.9 50.021 14.693v39.009c0 4.142 3.358 7.5 7.5 7.5s7.5-3.358 7.5-7.5v-37.114c6.425.576 12.91.876 19.451.876s13.025-.3 19.451-.876v37.114c0 4.142 3.358 7.5 7.5 7.5s7.5-3.358 7.5-7.5v-39.009c17.21-2.792 33.93-7.696 50.021-14.693.991 2.065 2.903 3.655 5.324 4.126 4.069.792 8.003-1.863 8.795-5.929l2.367-12.161c7.359-37.805 37.913-66.915 76.029-72.437l5.772-.836c3.157-.458 5.679-2.862 6.287-5.994l14.286-73.633c1.056-5.458 4.431-10.17 9.26-12.928 4.827-2.755 10.604-3.265 15.847-1.398 8.797 3.133 14.037 12.651 12.19 22.139l-21.32 109.526c-4.458 22.904-17.569 42.701-36.917 55.744-19.349 13.042-42.617 17.77-65.521 13.312-4.063-.789-8.003 1.863-8.795 5.929s1.863 8.003 5.929 8.795c6.59 1.283 13.204 1.917 19.771 1.917 2.782 0 5.553-.125 8.312-.352v17.881c0 4.142 3.358 7.5 7.5 7.5s7.5-3.358 7.5-7.5v-20.258c11.874-2.808 23.269-7.762 33.689-14.786 22.67-15.283 38.032-38.479 43.256-65.315l21.32-109.526c2.512-12.906-2.533-25.877-12.205-33.696zm-47.933-109.913c9.429 0 17.099 7.67 17.099 17.099v4.942c-.42-.016-.841-.032-1.266-.032-4.874 0-9.655 1.12-13.987 3.216-3.149-7.76-6.766-15.332-10.816-22.671 2.674-1.654 5.753-2.554 8.97-2.554zm-407.53 17.099c0-9.429 7.67-17.099 17.099-17.099 3.227 0 6.309.905 8.984 2.565-4.028 7.309-7.633 14.88-10.793 22.679-4.342-2.107-9.136-3.234-14.024-3.234-.424 0-.845.016-1.266.032zm-15.834 85.95v-48.94c0-9.429 7.671-17.1 17.1-17.1 3.133 0 6.191.874 8.844 2.477-6.573 20.309-10.171 41.942-10.265 64.39-5.081-1.488-10.446-1.783-15.679-.827zm53.312 95.499-.499-.072-13.27-68.395c-1.244-6.429-4.296-12.271-8.697-16.923-.116-2.783-.179-5.6-.179-8.382 0-33.306 8.3-64.705 22.921-92.258l55.608 26.178c.753.354 1.278 1.057 1.406 1.879l2.328 15.001c.158 1.02-.338 2.047-1.235 2.557l-26.368 14.987c-5.231 2.973-8.532 8.336-8.831 14.346l-1.079 21.718c-.39 7.839 4.543 15.03 11.997 17.488l29.62 9.769c2.344.773 4.776 1.042 7.227.793l24.189-2.425c.969-.094 1.62.356 1.927.634s.823.889.823 1.854v27.049c0 .433-.113.86-.328 1.237l-36.605 64.27c-15.934-16.535-37.179-27.861-60.955-31.305zm387.304-94.671c-.037-8.752-.599-17.554-1.696-26.179-.523-4.109-4.275-7.023-8.386-6.494-4.109.522-7.017 4.277-6.494 8.386 1.055 8.294 1.59 16.768 1.59 25.185 0 2.783-.064 5.599-.179 8.382-4.401 4.652-7.453 10.492-8.696 16.919l-13.271 68.399-.499.072c-35.938 5.206-66.1 28.409-80.853 60.41l-30.777-16.744c-1.893-1.03-3.937-1.696-6.077-1.978l-22.196-2.925c-1.168-.154-2.079-1.118-2.166-2.293l-2.485-33.414c-.075-1.005.456-1.951 1.353-2.41l21.136-10.829c3.687-1.889 5.144-6.408 3.255-10.095s-6.409-5.145-10.095-3.255l-21.135 10.828c-6.278 3.216-9.997 9.839-9.473 16.873l2.485 33.413c.611 8.225 6.989 14.976 15.166 16.053l22.194 2.925c.307.041.599.136.87.283l32.623 17.749c-.899 3.036-1.677 6.125-2.306 9.272-27.006 13.16-56.045 19.848-86.353 19.848s-59.347-6.687-86.353-19.848c-2.957-14.772-8.954-28.391-17.305-40.201l39.415-69.202c1.5-2.634 2.293-5.629 2.293-8.661v-27.049c0-4.936-2.099-9.666-5.759-12.977-3.659-3.311-8.573-4.925-13.486-4.436l-24.191 2.425c-.349.034-.695-.002-1.03-.113l-29.62-9.769c-1.064-.351-1.769-1.378-1.713-2.499l1.079-21.718c.043-.859.515-1.625 1.262-2.05l26.368-14.987c6.278-3.568 9.753-10.761 8.646-17.897l-2.327-15c-.893-5.754-4.571-10.67-9.84-13.151l-54.44-25.628c24.388-38.548 61.742-68.107 105.887-82.509l11.408 31.184c2 5.468 6.567 9.569 12.218 10.972l32.331 8.028c3.786.939 7.828.577 11.384-1.021l23.391-10.502c.576-.258 1.221-.29 1.818-.09l27.408 9.19c1.29.433 1.992 1.792 1.598 3.095l-17.317 57.209c-.251.828-.898 1.459-1.733 1.687l-32.647 8.94c-5.723 1.567-10.223 5.875-12.039 11.524l-7.907 24.603c-1.441 4.483-.997 9.438 1.221 13.595l21.715 40.69c4.017 7.527 12.812 11.053 20.917 8.381l34.358-11.324c6.229-2.053 10.749-7.349 11.797-13.823l7.255-44.808c.187-1.158 1.174-2.04 2.346-2.097l20.623-1.006c.916-.051 1.775.411 2.253 1.191l10.654 17.384c.366.597.465 1.324.271 1.997l-17.86 62.214c-.19.662-.65 1.221-1.263 1.535l-25.302 12.963c-3.687 1.889-5.144 6.408-3.255 10.095 1.328 2.592 3.956 4.082 6.681 4.082 1.151 0 2.319-.266 3.414-.827l25.301-12.962c4.29-2.197 7.513-6.114 8.842-10.747l17.86-62.214c1.351-4.705.658-9.797-1.9-13.973l-10.654-17.384c-3.341-5.454-9.374-8.634-15.774-8.336l-20.623 1.006c-8.203.401-15.109 6.576-16.421 14.683l-7.254 44.808c-.15.925-.796 1.681-1.686 1.975l-34.359 11.324c-1.157.382-2.415-.122-2.988-1.197l-21.715-40.69c-.316-.594-.38-1.301-.174-1.942l7.907-24.604c.259-.807.902-1.422 1.72-1.646l32.647-8.94c5.84-1.599 10.374-6.014 12.128-11.809l17.317-57.21c2.76-9.118-2.154-18.633-11.186-21.662l-27.408-9.19c-4.184-1.403-8.707-1.181-12.732.628l-23.39 10.502c-.508.229-1.085.28-1.627.146l-32.331-8.028c-.807-.2-1.459-.786-1.745-1.567l-11.027-30.142c14.963-3.638 30.582-5.581 46.648-5.581 86.867 0 162.627 55.656 188.52 138.493 1.236 3.954 5.444 6.158 9.396 4.921 3.954-1.235 6.157-5.442 4.921-9.396-.193-.618-.399-1.232-.598-1.848 2.644-1.59 5.689-2.456 8.81-2.456 9.429 0 17.1 7.671 17.1 17.1v48.94c-5.236-.958-10.603-.663-15.684.826z"/><path d="m227.04 142.839 7.354-7.354c2.929-2.929 2.929-7.678 0-10.606-2.929-2.929-7.678-2.929-10.606 0l-2.051 2.051-2.051-2.051c-2.929-2.929-7.678-2.929-10.606 0-2.929 2.929-2.929 7.678 0 10.606l7.354 7.354c1.464 1.464 3.384 2.197 5.303 2.197s3.839-.733 5.303-2.197z"/><path d="m193.925 158.252-2.051 2.051-2.051-2.051c-2.929-2.929-7.678-2.929-10.606 0-2.929 2.929-2.929 7.678 0 10.606l7.354 7.354c1.464 1.464 3.384 2.197 5.303 2.197s3.839-.732 5.303-2.197l7.354-7.354c2.929-2.929 2.929-7.678 0-10.606s-7.678-2.928-10.606 0z"/><path d="m237.245 339.587-2.051 2.051-2.051-2.051c-2.929-2.929-7.678-2.929-10.606 0-2.929 2.929-2.929 7.678 0 10.606l7.354 7.354c1.464 1.464 3.384 2.197 5.303 2.197s3.839-.732 5.303-2.197l7.354-7.354c2.929-2.929 2.929-7.678 0-10.606-2.928-2.929-7.677-2.929-10.606 0z"/><path d="m376.149 119.929-2.051 2.051-2.051-2.051c-2.929-2.929-7.678-2.929-10.606 0-2.929 2.929-2.929 7.678 0 10.606l7.354 7.354c1.464 1.464 3.384 2.197 5.303 2.197s3.839-.732 5.303-2.197l7.354-7.354c2.929-2.929 2.929-7.678 0-10.606-2.928-2.929-7.678-2.929-10.606 0z"/><path d="m351.861 325.431-2.051 2.051-2.051-2.051c-2.929-2.929-7.678-2.929-10.606 0-2.929 2.929-2.929 7.678 0 10.606l7.354 7.354c1.464 1.464 3.384 2.197 5.303 2.197s3.839-.732 5.303-2.197l7.354-7.354c2.929-2.929 2.929-7.678 0-10.606-2.928-2.929-7.677-2.929-10.606 0z"/><path d="m120.83 282.826-2.051 2.051-2.051-2.051c-2.929-2.929-7.678-2.929-10.606 0-2.929 2.929-2.929 7.678 0 10.606l7.354 7.354c1.464 1.464 3.384 2.197 5.303 2.197s3.839-.732 5.303-2.197l7.354-7.354c2.929-2.929 2.929-7.678 0-10.606-2.928-2.929-7.677-2.929-10.606 0z"/></g></g></g></svg>