<svg id="Capa_1" enable-background="new 0 0 512 512" height="512" viewBox="0 0 512 512" width="512" xmlns="http://www.w3.org/2000/svg"><g><g clip-rule="evenodd" fill-rule="evenodd"><path d="m49.04 474.027h413.92c22.847 0 41.556-18.709 41.556-41.557 0-22.848-18.709-41.527-41.556-41.527h-413.92c-22.847 0-41.528 18.68-41.528 41.527 0 22.848 18.68 41.557 41.528 41.557z" fill="#b2a17d"/><path d="m49.04 474.027h413.92c22.847 0 41.556-18.709 41.556-41.557 0-4.224-.652-8.277-1.814-12.133-5.244 16.98-21.09 29.397-39.742 29.397h-413.92c-18.624 0-34.498-12.416-39.714-29.397-1.19 3.855-1.814 7.909-1.814 12.133 0 22.848 18.68 41.557 41.528 41.557z" fill="#a39474"/><path d="m173.482 241.841c56.155 0 101.935-45.779 101.935-101.934 0-56.126-45.78-101.905-101.935-101.905-56.127 0-101.907 45.779-101.907 101.905.001 56.154 45.78 101.934 101.907 101.934z" fill="#5aa687"/><path d="m338.518 241.841c56.127 0 101.935-45.779 101.935-101.934 0-56.126-45.809-101.905-101.935-101.905s-101.936 45.779-101.936 101.905c0 56.154 45.809 101.934 101.936 101.934z" fill="#5aa687"/><path d="m387.047 324.924c56.155 0 101.935-45.779 101.935-101.934 0-56.126-45.78-101.905-101.935-101.905-56.127 0-101.907 45.779-101.907 101.905.001 56.155 45.78 101.934 101.907 101.934z" fill="#78c2a4"/><path d="m387.047 121.085c56.297 0 101.935 45.609 101.935 101.905 0 56.297-45.638 101.934-101.935 101.934-4.11 0-8.136-.255-12.132-.708 50.571-6.01 89.803-49.04 89.803-101.226s-39.232-95.188-89.803-101.196c3.997-.482 8.022-.709 12.132-.709z" fill="#66b394"/><path d="m124.953 324.924c56.155 0 101.935-45.779 101.935-101.934 0-56.126-45.78-101.905-101.935-101.905-56.126 0-101.907 45.779-101.907 101.905 0 56.155 45.78 101.934 101.907 101.934z" fill="#78c2a4"/><path d="m129.8 222.99c0 36.737 19.417 68.91 48.558 86.854 4.252-2.636 8.306-5.556 12.132-8.759-22.252-18.708-36.397-46.743-36.397-78.095 0-31.322 14.145-59.357 36.397-78.066-3.827-3.203-7.88-6.15-12.132-8.759-29.141 17.943-48.558 50.117-48.558 86.825z" fill="#66b394"/><path d="m256 324.924c56.155 0 101.935-45.779 101.935-101.934 0-56.126-45.781-101.905-101.935-101.905-56.127 0-101.907 45.779-101.907 101.905 0 56.155 45.78 101.934 101.907 101.934z" fill="#b3e59f"/><path d="m256 121.085c56.296 0 101.935 45.609 101.935 101.905 0 56.297-45.639 101.934-101.935 101.934-4.11 0-8.135-.255-12.132-.708 50.571-6.01 89.803-49.04 89.803-101.226s-39.232-95.188-89.803-101.196c3.997-.482 8.022-.709 12.132-.709z" fill="#95d6a4"/><g fill="#398766"><path d="m326.385 38.71c45.667 5.415 82.064 41.018 88.697 86.259 9.014 2.579 17.49 6.35 25.285 11.14-1.984-54.51-46.829-98.106-101.85-98.106-4.11-.001-8.163.226-12.132.707z"/><path d="m238.056 122.645c2.665-15.704 8.958-30.189 17.944-42.577-3.628-4.989-7.682-9.638-12.132-13.89-17.349 16.583-28.857 39.203-31.125 64.517 7.937-3.742 16.412-6.464 25.313-8.05z"/></g></g><path d="m49.04 466.516h68.429v-68.089h-68.429c-9.354 0-17.858 3.827-24.038 10.007s-10.007 14.684-10.007 24.037c0 9.354 3.827 17.858 10.007 24.038 6.179 6.179 14.683 10.007 24.038 10.007zm382.398-343.56c-3.6-19.871-13.436-37.588-27.411-51.052-16.951-16.356-40.054-26.419-65.51-26.419-15.42 0-29.991 3.713-42.832 10.261-19.815 10.092-35.632 27.043-44.249 47.509-1.445 3.431-2.693 6.974-3.742 10.63 2.75-.198 5.528-.312 8.306-.312 24.605 0 47.282 8.107 65.566 21.798 8.504-6.35 17.943-11.508 28.092-15.193 11.707-4.28 24.293-6.604 37.389-6.604 15.818-.001 30.842 3.344 44.391 9.382zm-199.788-6.661c1.446-6.492 3.458-12.785 6.038-18.851 2.523-6.038 5.584-11.765 9.071-17.122-8.277-10.176-18.653-18.566-30.416-24.576-12.869-6.548-27.412-10.261-42.86-10.261-9.751 0-19.134 1.474-27.922 4.195-9.127 2.806-17.66 6.973-25.399 12.273-3.401 2.353-8.079 1.474-10.403-1.956-2.325-3.401-1.446-8.078 1.984-10.402 8.9-6.095 18.822-10.942 29.424-14.23 10.262-3.175 21.118-4.875 32.315-4.875 17.887 0 34.753 4.279 49.635 11.877 12.558 6.406 23.727 15.165 32.882 25.682 9.184-10.517 20.325-19.275 32.882-25.682 14.91-7.598 31.777-11.877 49.635-11.877 29.452 0 56.212 11.65 75.884 30.613 18.851 18.17 31.21 43.03 33.223 70.753 6.066 4.025 11.679 8.646 16.81 13.776 19.786 19.786 32.032 47.141 32.032 77.357 0 30.218-12.246 57.572-32.032 77.387-18.143 18.141-42.663 29.962-69.875 31.805v51.25h68.401c13.493 0 25.767 5.527 34.64 14.4 8.901 8.872 14.4 21.146 14.4 34.639s-5.499 25.768-14.4 34.64c-8.873 8.901-21.146 14.399-34.64 14.399-137.964 0-275.928 0-413.921 0-13.493 0-25.738-5.498-34.64-14.399-8.871-8.872-14.398-21.146-14.398-34.639 0-13.492 5.527-25.767 14.4-34.639 8.901-8.873 21.147-14.4 34.64-14.4h68.429v-51.25c-27.241-1.843-51.732-13.664-69.875-31.805-19.814-19.815-32.06-47.169-32.06-77.387 0-30.217 12.246-57.571 32.06-77.357 5.103-5.131 10.744-9.751 16.782-13.776.737-9.808 2.721-19.219 5.839-28.119 3.685-10.46 8.873-20.183 15.336-28.913 2.466-3.317 7.144-4.025 10.46-1.56 3.316 2.466 4.025 7.144 1.559 10.46-5.585 7.54-10.063 15.931-13.238 24.916-1.616 4.621-2.892 9.411-3.77 14.315 13.578-6.038 28.602-9.383 44.391-9.383 13.096 0 25.711 2.324 37.418 6.604 10.148 3.686 19.588 8.844 28.092 15.223 4.082-3.09 8.419-5.868 12.927-8.334 8.757-4.819 18.254-8.475 28.26-10.771zm147.913 106.695c0-4.139 3.345-7.483 7.484-7.483s7.512 3.345 7.512 7.483v94.139c23.074-1.814 43.824-11.934 59.273-27.354 17.065-17.094 27.638-40.706 27.638-66.785 0-26.078-10.573-49.662-27.638-66.756-17.093-17.093-40.706-27.666-66.785-27.666-11.395 0-22.252 2.013-32.315 5.67-7.71 2.806-14.939 6.576-21.572 11.168 20.693 20.467 32.259 48.529 32.259 77.584 0 9.524-1.19 18.766-3.487 27.553l17.631 17.632zm14.997 175.437v68.089h68.401c9.355 0 17.858-3.828 24.038-10.007 6.18-6.18 10.007-14.684 10.007-24.038s-3.827-17.857-10.007-24.037c-6.179-6.18-14.683-10.007-24.038-10.007zm-14.997 68.089v-68.089h-116.051v68.089zm0-83.084v-51.25c-11.508-.794-22.847-3.402-33.534-7.739v58.989zm0-66.303v-27.751l-23.045-23.046c-5.471 12.699-13.522 24.549-23.358 34.242 6.633 4.621 14.032 8.447 21.572 11.197 7.824 2.835 16.158 4.678 24.831 5.358zm-131.046-94.139c0-4.139 3.345-7.483 7.483-7.483 4.139 0 7.512 3.345 7.512 7.483v94.139c23.075-1.814 43.824-11.934 59.273-27.354 17.065-17.094 27.638-40.706 27.638-66.785 0-26.078-10.573-49.662-27.638-66.756-17.093-17.093-40.706-27.666-66.785-27.666-16.469 0-31.947 4.224-45.412 11.622-13.975 7.653-25.796 18.794-34.328 32.202-2.211 3.486-6.831 4.535-10.346 2.324-3.487-2.211-4.508-6.86-2.297-10.347 4.366-6.888 9.497-13.237 15.223-18.936-6.604-4.62-13.833-8.391-21.572-11.196-10.034-3.657-20.919-5.67-32.315-5.67-26.079 0-49.663 10.573-66.756 27.666-17.094 17.094-27.667 40.678-27.667 66.756 0 26.079 10.573 49.691 27.667 66.785 15.42 15.42 36.17 25.539 59.272 27.354v-32.768l-25.966-25.965c-2.919-2.92-2.919-7.683 0-10.602 2.92-2.92 7.683-2.92 10.602 0l15.364 15.335v-40.138c0-4.139 3.345-7.483 7.484-7.483s7.512 3.345 7.512 7.483v94.139c8.674-.68 16.98-2.522 24.803-5.357 7.569-2.75 14.968-6.576 21.572-11.197-20.693-20.438-32.259-48.528-32.259-77.584 0-8.418.992-16.895 2.92-25.115.935-4.024 4.96-6.52 8.986-5.584 4.025.936 6.548 4.961 5.584 8.986-1.672 7.143-2.494 14.371-2.494 21.713 0 26.079 10.574 49.691 27.667 66.785 15.421 15.42 36.17 25.539 59.273 27.354v-30.273l-25.966-25.938c-2.92-2.948-2.92-7.682 0-10.602 2.919-2.948 7.682-2.948 10.602 0l15.364 15.336zm14.995 109.192v51.25h67.494v-66.473c-3.26-1.956-6.406-4.054-9.44-6.35-16.413 12.303-36.369 20.098-58.054 21.573zm-14.995 134.334v-68.089h-116.052v68.089zm0-83.084v-51.25c-21.714-1.475-41.67-9.27-58.055-21.572-3.061 2.296-6.208 4.393-9.468 6.35v66.473h67.523zm-82.518 0v-58.989c-10.687 4.337-22.025 6.945-33.534 7.739v51.25z"/></g></svg>